<svg width="12" height="11" viewBox="0 0 12 11" fill="none" xmlns="http://www.w3.org/2000/svg">
<path fill-rule="evenodd" clip-rule="evenodd" d="M0 5.5C0 5.22386 0.223858 5 0.5 5H11.5C11.7761 5 12 5.22386 12 5.5C12 5.77614 11.7761 6 11.5 6H0.5C0.223858 6 0 5.77614 0 5.5Z" fill="white"/>
<path fill-rule="evenodd" clip-rule="evenodd" d="M5.35355 0.646447C5.54882 0.841709 5.54882 1.15829 5.35355 1.35355L1.20711 5.5L5.35355 9.64645C5.54882 9.84171 5.54882 10.1583 5.35355 10.3536C5.15829 10.5488 4.84171 10.5488 4.64645 10.3536L0.146447 5.85355C-0.0488155 5.65829 -0.0488155 5.34171 0.146447 5.14645L4.64645 0.646447C4.84171 0.451184 5.15829 0.451184 5.35355 0.646447Z" fill="white"/>
</svg>
