<svg width="20" height="10" viewBox="0 0 20 10" fill="none" xmlns="http://www.w3.org/2000/svg">
<path fill-rule="evenodd" clip-rule="evenodd" d="M16.4828 2.28529C16.8416 2.07818 17.3002 2.20109 17.5074 2.55981L19.6458 6.26367C19.8529 6.62239 19.73 7.08109 19.3713 7.28819C19.0125 7.4953 18.5539 7.37239 18.3467 7.01367L16.2083 3.30981C16.0012 2.95109 16.1241 2.4924 16.4828 2.28529Z" fill="#A9AFBD"/>
<path fill-rule="evenodd" clip-rule="evenodd" d="M12.3244 4.25479C12.7323 4.18287 13.1213 4.45524 13.1932 4.86316L13.8601 8.6454C13.9321 9.05332 13.6597 9.44232 13.2518 9.51425C12.8438 9.58617 12.4548 9.3138 12.3829 8.90588L11.716 5.12363C11.6441 4.71571 11.9165 4.32672 12.3244 4.25479Z" fill="#A9AFBD"/>
<path fill-rule="evenodd" clip-rule="evenodd" d="M7.66745 4.25298C8.07537 4.32491 8.34774 4.7139 8.27582 5.12182L7.6088 8.90469C7.53687 9.31261 7.14787 9.58499 6.73995 9.51306C6.33203 9.44113 6.05966 9.05214 6.13159 8.64422L6.79861 4.86135C6.87053 4.45343 7.25953 4.18105 7.66745 4.25298Z" fill="#A9AFBD"/>
<path fill-rule="evenodd" clip-rule="evenodd" d="M3.51336 2.28226C3.87208 2.48937 3.99498 2.94806 3.78787 3.30678L1.63915 7.02849C1.43204 7.38721 0.973347 7.51012 0.614627 7.30301C0.255908 7.0959 0.133001 6.63721 0.340108 6.27849L2.48884 2.55678C2.69594 2.19806 3.15464 2.07516 3.51336 2.28226Z" fill="#A9AFBD"/>
<path fill-rule="evenodd" clip-rule="evenodd" d="M0.528675 0.248634C0.850878 -0.0116694 1.32309 0.0385101 1.5834 0.360713C3.0769 2.20937 5.77273 4.49999 10 4.49999C14.2274 4.49999 16.9232 2.20938 18.4167 0.360733C18.677 0.0385309 19.1492 -0.0116476 19.4714 0.248657C19.7936 0.508961 19.8438 0.981176 19.5835 1.30338C17.9246 3.35669 14.8414 5.99999 10 5.99999C5.15865 5.99999 2.07544 3.35667 0.416596 1.30336C0.156293 0.981153 0.206472 0.508938 0.528675 0.248634Z" fill="#A9AFBD"/>
</svg>
