<svg xmlns="http://www.w3.org/2000/svg" style="display: none;">
    <symbol id="icon-checked" viewBox="0 0 18 14">
        <path d="M6.3548 13.1682C6.13369 13.1682 5.91258 13.0836 5.74413 12.9152L0.453573 7.62445C0.115736 7.28677 0.115736 6.74079 0.453573 6.40311C0.791251 6.06543 1.33707 6.06543 1.67491 6.40311L6.3548 11.083L16.3256 1.11239C16.6633 0.774711 17.2091 0.774711 17.5469 1.11239C17.8846 1.45023 17.8846 1.99605 17.5469 2.33388L6.96563 12.9152C6.79719 13.0836 6.57592 13.1682 6.3548 13.1682Z" />
    </symbol>
    <symbol id="icon-triangle" viewBox="0 0 8 4">
        <path d="M3.65721 3.87333C3.8496 4.04222 4.1504 4.04222 4.34279 3.87333L7.84263 0.800946C8.17087 0.512797 7.95141 0 7.49985 0H0.500152C0.0485917 0 -0.170873 0.512798 0.157366 0.800947L3.65721 3.87333Z" />
    </symbol>
    <symbol id="icon-eye-closed" viewBox="0 0 20 10">
        <path fill-rule="evenodd" clip-rule="evenodd" d="M16.4828 2.28529C16.8416 2.07818 17.3002 2.20109 17.5074 2.55981L19.6458 6.26367C19.8529 6.62239 19.73 7.08109 19.3713 7.28819C19.0125 7.4953 18.5539 7.37239 18.3467 7.01367L16.2083 3.30981C16.0012 2.95109 16.1241 2.4924 16.4828 2.28529Z" />
        <path fill-rule="evenodd" clip-rule="evenodd" d="M12.3244 4.25479C12.7323 4.18287 13.1213 4.45524 13.1932 4.86316L13.8601 8.6454C13.9321 9.05332 13.6597 9.44232 13.2518 9.51425C12.8438 9.58617 12.4548 9.3138 12.3829 8.90588L11.716 5.12363C11.6441 4.71571 11.9165 4.32672 12.3244 4.25479Z" />
        <path fill-rule="evenodd" clip-rule="evenodd" d="M7.66745 4.25298C8.07537 4.32491 8.34774 4.7139 8.27582 5.12182L7.6088 8.90469C7.53687 9.31261 7.14787 9.58499 6.73995 9.51306C6.33203 9.44113 6.05966 9.05214 6.13159 8.64422L6.79861 4.86135C6.87053 4.45343 7.25953 4.18105 7.66745 4.25298Z" />
        <path fill-rule="evenodd" clip-rule="evenodd" d="M3.51336 2.28226C3.87208 2.48937 3.99498 2.94806 3.78787 3.30678L1.63915 7.02849C1.43204 7.38721 0.973347 7.51012 0.614627 7.30301C0.255908 7.0959 0.133001 6.63721 0.340108 6.27849L2.48884 2.55678C2.69594 2.19806 3.15464 2.07516 3.51336 2.28226Z" />
        <path fill-rule="evenodd" clip-rule="evenodd" d="M0.528675 0.248634C0.850878 -0.0116694 1.32309 0.0385101 1.5834 0.360713C3.0769 2.20937 5.77273 4.49999 10 4.49999C14.2274 4.49999 16.9232 2.20938 18.4167 0.360733C18.677 0.0385309 19.1492 -0.0116476 19.4714 0.248657C19.7936 0.508961 19.8438 0.981176 19.5835 1.30338C17.9246 3.35669 14.8414 5.99999 10 5.99999C5.15865 5.99999 2.07544 3.35667 0.416596 1.30336C0.156293 0.981153 0.206472 0.508938 0.528675 0.248634Z" />
    </symbol>
    <symbol id="icon-arrow-left" viewBox="0 0 12 11">
        <path fill-rule="evenodd" clip-rule="evenodd" d="M0 5.5C0 5.22386 0.223858 5 0.5 5H11.5C11.7761 5 12 5.22386 12 5.5C12 5.77614 11.7761 6 11.5 6H0.5C0.223858 6 0 5.77614 0 5.5Z" />
        <path fill-rule="evenodd" clip-rule="evenodd" d="M5.35355 0.646447C5.54882 0.841709 5.54882 1.15829 5.35355 1.35355L1.20711 5.5L5.35355 9.64645C5.54882 9.84171 5.54882 10.1583 5.35355 10.3536C5.15829 10.5488 4.84171 10.5488 4.64645 10.3536L0.146447 5.85355C-0.0488155 5.65829 -0.0488155 5.34171 0.146447 5.14645L4.64645 0.646447C4.84171 0.451184 5.15829 0.451184 5.35355 0.646447Z" />
    </symbol>
    <symbol id="icon-arrow-right" viewBox="0 0 12 11">
        <path fill-rule="evenodd" clip-rule="evenodd" d="M0 5.5C0 5.22386 0.223858 5 0.5 5H11.5C11.7761 5 12 5.22386 12 5.5C12 5.77614 11.7761 6 11.5 6H0.5C0.223858 6 0 5.77614 0 5.5Z" />
        <path fill-rule="evenodd" clip-rule="evenodd" d="M6.64645 0.646447C6.84171 0.451184 7.15829 0.451184 7.35355 0.646447L11.8536 5.14645C12.0488 5.34171 12.0488 5.65829 11.8536 5.85355L7.35355 10.3536C7.15829 10.5488 6.84171 10.5488 6.64645 10.3536C6.45118 10.1583 6.45118 9.84171 6.64645 9.64645L10.7929 5.5L6.64645 1.35355C6.45118 1.15829 6.45118 0.841709 6.64645 0.646447Z" />
    </symbol>
    <symbol id="icon-pencil" viewBox="0 0 19 19">
        <path fill-rule="evenodd" clip-rule="evenodd" d="M11.6893 1C11.9706 0.718696 12.3522 0.560661 12.75 0.560661C13.1478 0.560661 13.5294 0.718696 13.8107 1L18 5.18934C18.2813 5.47065 18.4393 5.85218 18.4393 6.25C18.4393 6.64782 18.2813 7.02936 18 7.31066L6.75 18.5607C6.61072 18.6999 6.44536 18.8104 6.26337 18.8858C6.08138 18.9612 5.88632 19 5.68934 19H1.5C1.10218 19 0.720645 18.842 0.43934 18.5607C0.158035 18.2794 0 17.8978 0 17.5V13.3107C-5.96046e-08 13.1137 0.0387985 12.9186 0.114181 12.7366C0.189562 12.5546 0.300052 12.3893 0.43934 12.25L11.6893 1ZM16.9393 6.25L12.75 2.06066L1.5 13.3107L0.975629 12.7863L1.5 13.3107L1.5 17.5L5.68934 17.5L16.9393 6.25Z" />
        <path fill-rule="evenodd" clip-rule="evenodd" d="M9.21967 3.46967C9.51256 3.17678 9.98744 3.17678 10.2803 3.46967L15.5303 8.71967C15.8232 9.01256 15.8232 9.48744 15.5303 9.78033C15.2374 10.0732 14.7626 10.0732 14.4697 9.78033L9.21967 4.53033C8.92678 4.23744 8.92678 3.76256 9.21967 3.46967Z" />
        <path fill-rule="evenodd" clip-rule="evenodd" d="M0.267399 12.5174C0.560293 12.2245 1.03517 12.2245 1.32806 12.5174L6.48244 17.6717C6.77533 17.9646 6.77533 18.4395 6.48244 18.7324C6.18954 19.0253 5.71467 19.0253 5.42178 18.7324L0.2674 13.578C-0.0254938 13.2851 -0.0254938 12.8103 0.267399 12.5174Z" />
    </symbol>
</svg>