<svg xmlns="http://www.w3.org/2000/svg" style="display: none;">
    <symbol id="icon-chain-quartz" viewBox="0 0 48 48">
        <path fill-rule="evenodd" clip-rule="evenodd" d="M26.2587 40.2501C26.1449 40.126 26.004 40.0299 25.8469 39.9693C25.6898 39.9088 25.5209 39.8854 25.3532 39.901C24.9278 39.901 24.4914 39.9556 24.055 39.9556C20.6739 39.9647 17.3769 38.902 14.6376 36.9201C11.8982 34.9382 9.85749 32.1391 8.80846 28.9248C7.75943 25.7105 7.7561 22.2465 8.79895 19.0302C9.84179 15.8139 11.8772 13.0109 14.6127 11.0238C17.3482 9.03662 20.6432 7.96758 24.0243 7.97019C27.4054 7.9728 30.6987 9.04693 33.4312 11.0383C36.1636 13.0297 38.1947 15.8358 39.2325 19.0537C40.2704 22.2716 40.2617 25.7356 39.2077 28.9483C39.1102 29.201 39.1102 29.481 39.2077 29.7337L42.8296 37.5228C42.8698 37.6093 42.9319 37.6836 43.0098 37.7386C43.0877 37.7935 43.1787 37.827 43.2736 37.8359C43.3685 37.8447 43.4641 37.8285 43.5508 37.7889C43.6375 37.7493 43.7123 37.6876 43.7677 37.6101C46.9871 32.9341 48.4447 27.2683 47.8816 21.6192C47.3184 15.9701 44.7709 10.7035 40.6917 6.75517C36.6125 2.8068 31.2658 0.432298 25.6013 0.053509C19.9369 -0.32528 14.3216 1.31618 9.75297 4.68625C5.18439 8.05633 1.95837 12.9368 0.648048 18.4606C-0.662271 23.9844 0.0279581 29.7939 2.59611 34.8569C5.16426 39.9199 9.44404 43.9086 14.6751 46.1144C19.9062 48.3201 25.7498 48.6001 31.1678 46.9046C31.2545 46.8769 31.3328 46.8279 31.3958 46.7622C31.4587 46.6964 31.5041 46.6159 31.528 46.5281C31.5519 46.4402 31.5534 46.3478 31.5324 46.2593C31.5114 46.1707 31.4685 46.0888 31.4078 46.021L26.2587 40.2501Z" fill="#FF4D6A" />
        <path fill-rule="evenodd" clip-rule="evenodd" d="M33.7419 26.7558L30.371 31.043C30.2429 31.2029 30.067 31.3175 29.8691 31.3703L24.6001 32.723H24.5237H24.4692C24.466 32.7013 24.466 32.6793 24.4692 32.6576C24.4641 32.6361 24.4641 32.6136 24.4692 32.5921L26.1601 26.1776C26.1822 26.0807 26.2235 25.9893 26.2816 25.9087C26.3397 25.8282 26.4133 25.7601 26.4982 25.7085C26.6617 25.5993 26.8606 25.5564 27.0546 25.5885L33.6546 26.5485H33.72C33.7247 26.5664 33.7247 26.5851 33.72 26.603C33.7251 26.6246 33.7251 26.647 33.72 26.6685C33.7304 26.6802 33.7377 26.6943 33.7415 26.7095C33.7453 26.7247 33.7454 26.7405 33.7419 26.7558V26.7558ZM25.0146 34.4576L30.9055 32.9085C31.1051 32.8595 31.282 32.7441 31.4073 32.5812L35.16 27.8249H35.2255H35.2909L42.2727 42.8357C42.3495 43.0144 42.3795 43.2096 42.36 43.403C42.3366 43.5975 42.2613 43.7822 42.1418 43.9375L40.44 46.3266C40.3302 46.462 40.1818 46.5609 40.0146 46.6103L37.1128 47.3848C36.9235 47.4368 36.7238 47.4368 36.5346 47.3848C36.3452 47.3259 36.1755 47.2166 36.0437 47.0684L24.9273 34.6648V34.6103C24.9216 34.6003 24.9186 34.5891 24.9186 34.5776C24.9186 34.5661 24.9216 34.5548 24.9273 34.5448C24.9226 34.5365 24.92 34.5271 24.92 34.5176C24.92 34.508 24.9226 34.4986 24.9273 34.4903L25.0146 34.4576Z" fill="#FF4D6A" />
    </symbol>
    <symbol id="icon-chain-opal" viewBox="0 0 48 48">
        <path fill-rule="evenodd" clip-rule="evenodd" d="M40.2378 23.4119C40.2223 19.6831 39.1282 16.3633 36.9539 13.4332L36.9528 13.4316C35.229 11.0928 32.9051 9.41345 29.9592 8.39506C29.0578 8.08339 28.3882 7.24877 28.384 6.24988L28.367 2.17402C28.3613 0.788736 29.6504 -0.325616 31.0548 0.0870188C40.8156 2.95519 47.9554 12.0006 48 22.7611L47.9879 25.2314C47.9478 35.992 40.8118 45.0404 31.0522 47.9128C29.6482 48.3259 28.3585 47.2122 28.3637 45.8269L28.3788 41.751C28.3825 40.7521 29.0518 39.9172 29.9532 39.6052C32.8986 38.5855 35.2218 36.9053 36.9446 34.5656L36.9457 34.5641C39.1187 31.6331 40.2115 28.3127 40.2253 24.5839L40.2378 23.4119ZM7.7622 23.412C7.77767 19.6832 8.87183 16.3633 11.0461 13.4333L11.0472 13.4317C12.771 11.0928 15.0949 9.41352 18.0408 8.39513C18.9422 8.08346 19.6118 7.24884 19.616 6.24995L19.633 2.17409C19.6387 0.788808 18.3496 -0.325544 16.9452 0.0870907C7.18445 2.95526 0.0446308 12.0007 0 22.7611L0.0121526 25.2316C0.0522143 35.9921 7.18819 45.0404 16.9478 47.9128C18.3518 48.326 19.6415 47.2122 19.6363 45.8269L19.6212 41.7511C19.6175 40.7522 18.9482 39.9173 18.0468 39.6053C15.1014 38.5856 12.7782 36.9053 11.0554 34.5656L11.0543 34.5642C8.88127 31.6331 7.78852 28.3128 7.77463 24.584L7.7622 23.412ZM24 15.2726C21.59 15.2726 19.6363 17.2264 19.6363 19.6363V28.3636C19.6363 30.7735 21.59 32.7272 24 32.7272C26.41 32.7272 28.3637 30.7735 28.3637 28.3636V19.6363C28.3637 17.2264 26.41 15.2726 24 15.2726Z" fill="#5942C8" />
    </symbol>
    <symbol id="icon-chain-kusama" viewBox="0 0 24 24">
        <circle cx="12" cy="12" r="12" fill="#040B1D" />
        <path d="M19.6575 7.2538C19.3987 7.04973 19.0901 6.771 18.5277 6.70132C18.0001 6.63164 17.4625 6.98503 17.0992 7.21896C16.7359 7.45289 16.049 8.13976 15.7653 8.3488C15.4816 8.55785 14.7549 8.75197 13.5852 9.45376C12.4156 10.1556 7.82651 13.1021 7.82651 13.1021L9.02106 13.1171L3.69536 15.8595H4.22793L3.46143 16.4419C3.46143 16.4419 4.13834 16.6211 4.70575 16.2627V16.427C4.70575 16.427 11.0468 13.9284 12.2712 14.5754L11.5246 14.7944C11.5893 14.7944 12.7938 14.874 12.7938 14.874C12.8231 15.1235 12.9069 15.3634 13.0394 15.5767C13.1719 15.7901 13.3497 15.9716 13.5603 16.1084C14.287 16.5862 14.302 16.85 14.302 16.85C14.302 16.85 13.9237 17.0043 13.9237 17.1984C13.9237 17.1984 14.4811 17.0292 14.9988 17.0441C15.3273 17.0566 15.6532 17.1084 15.9694 17.1984C15.9694 17.1984 15.9295 16.9894 15.4268 16.85C14.9241 16.7107 14.4264 16.1632 14.1825 15.8645C14.0331 15.6744 13.9358 15.4487 13.9 15.2096C13.8642 14.9705 13.8912 14.7262 13.9784 14.5007C14.1526 14.0478 14.7599 13.7989 16.0142 13.1519C17.4924 12.3854 17.8309 11.818 18.0399 11.375C18.249 10.932 18.5575 10.051 18.7318 9.63792C18.9508 9.10535 19.2195 8.82165 19.4435 8.65242C19.6675 8.48319 20.6629 8.10989 20.6629 8.10989C20.6629 8.10989 19.9014 7.44791 19.6575 7.2538Z" fill="white" />
    </symbol>
    <symbol id="icon-chain-unique" viewBox="0 0 24 24">
        <path fill-rule="evenodd" clip-rule="evenodd" d="M14.4357 23.4073C14.4357 23.736 14.737 23.9822 15.0534 23.8982C20.2019 22.531 24 17.7882 24 12.1475C24 5.43861 18.6274 0 12 0C5.37258 0 0 5.43861 0 12.1475C0 17.9179 3.9747 22.7486 9.30385 23.9871C9.61667 24.0598 9.90723 23.8149 9.90723 23.4924V20.6145C9.90723 20.3821 9.75265 20.1794 9.53256 20.1076C7.84481 19.5572 6.47976 18.5824 5.4374 17.1834C4.32678 15.6823 3.77148 13.9429 3.77148 11.9652C3.77148 9.35211 4.74131 7.21161 6.68097 5.54369C8.29215 4.1617 10.1262 3.47071 12.1832 3.47071C14.8346 3.47071 16.9737 4.44366 18.6005 6.38956C19.9145 7.96217 20.5715 9.77703 20.5715 11.8341C20.5715 13.8515 19.9888 15.6584 18.8234 17.2549C17.846 18.603 16.5081 19.5539 14.8096 20.1075C14.5899 20.1792 14.4357 20.3817 14.4357 20.6138V23.4073ZM14.2832 13.7942C14.2832 13.5078 14.0521 13.2757 13.7671 13.2757H10.5876C10.3026 13.2757 10.0715 13.5078 10.0715 13.7942V13.9909C10.0715 14.4306 9.57526 14.6483 9.32753 14.2858C8.88495 13.6382 8.66366 12.8726 8.66366 11.989C8.66366 10.9803 9.0117 10.1066 9.70779 9.36799C10.4039 8.62934 11.229 8.26002 12.1832 8.26002C13.1296 8.26002 13.9508 8.62934 14.6469 9.36799C15.343 10.1066 15.691 10.9803 15.691 11.989C15.691 12.8457 15.4723 13.6006 15.0349 14.2537C14.7879 14.6225 14.2832 14.4066 14.2832 13.9621V13.7942Z" fill="#00BFFF" />
    </symbol>
    <symbol id="icon-social-discord" viewBox="0 0 32 32">
        <circle cx="16" cy="16" r="16" fill="#009CF0" />
        <path d="M10.4064 20.2088C14.7559 21.9407 18.4573 22.2781 22.6518 19.5823C22.6211 19.6294 21.7914 20.8836 19.6094 21.5263C20.0704 22.1691 20.7004 22.9059 20.7004 22.9059C22.0987 22.9059 23.4662 22.4983 24.6493 21.7144C25.5712 21.0873 26.0936 20.0056 25.9861 18.8768C25.8017 16.9485 25.3561 15.0672 24.6647 13.2643C23.7888 10.9127 21.6838 9.28223 19.2407 9.04705C19.0256 9.03137 18.8719 9.03137 18.7797 9.03137L18.5339 9.28219C21.3458 10.0974 22.744 11.3673 22.7747 11.4143C18.457 9.18812 13.3557 9.1568 9.00728 11.3203C9.00728 11.3203 10.3902 9.92499 13.4479 9.18812L13.2635 9C12.9408 9 12.6335 9.03137 12.3108 9.07838C10.0521 9.47031 8.16219 11.0537 7.34781 13.2329C6.64098 15.1142 6.18003 17.0896 6.01103 19.0963C5.91883 20.1623 6.41053 21.2128 7.27099 21.8242C8.40802 22.5924 9.76017 23 11.1277 23C11.1277 23 11.6808 22.2631 12.234 21.6047C10.1597 20.9776 9.31459 19.7234 9.29922 19.6764L9.68961 19.8797C9.92298 20.0014 10.1622 20.1116 10.4064 20.2088ZM12.8179 18.8455C11.8192 18.8141 11.0355 17.9519 11.0663 16.9171C11.097 15.9451 11.8653 15.1613 12.8179 15.1299C13.8167 15.1613 14.6003 16.0235 14.5696 17.0582C14.5235 18.0303 13.7706 18.8141 12.8179 18.8455ZM19.087 18.8455C18.0882 18.8141 17.3046 17.9519 17.3353 16.9171C17.3661 15.9451 18.1343 15.1613 19.087 15.1299C20.0858 15.1613 20.8694 16.0235 20.8387 17.0582C20.808 18.0303 20.0396 18.8141 19.087 18.8455Z" fill="white" />
    </symbol>
    <symbol id="icon-social-github" viewBox="0 0 32 32">
        <g clip-path="url(#clip0_8_1487)">
            <circle cx="16" cy="16" r="16" fill="#009CF0" />
            <path fill-rule="evenodd" clip-rule="evenodd" d="M16.0215 32.0007C16.0144 32.0007 16.0072 32.0007 16 32.0007C14.7621 32.0007 13.5571 31.8602 12.4 31.5941V30.5341V27.8674C8.00002 28.8007 7.06668 25.7341 7.06668 25.7341C6.40002 23.8674 5.33335 23.3341 5.33335 23.3341C3.86668 22.4008 5.46668 22.4007 5.46668 22.4007C7.06668 22.4007 7.86668 24.0007 7.86668 24.0007C9.33335 26.4008 11.6 25.7341 12.5333 25.3341C12.6667 24.2674 13.2 23.6007 13.6 23.2008C10 22.6674 6.26668 21.3341 6.26668 15.2008C6.26668 13.4674 6.80002 12.0008 7.86668 10.9341C7.73335 10.5341 7.20002 8.93409 8.00002 6.66742C8.00002 6.66742 9.33335 6.26742 12.4 8.26742C13.7333 7.86742 15.0667 7.73409 16.4 7.73409C17.7333 7.73409 19.0667 7.86742 20.4 8.26742C23.4667 6.26742 24.8 6.66742 24.8 6.66742C25.7333 8.93409 25.2 10.5341 24.9333 11.0674C25.8667 12.1341 26.5333 13.6008 26.5333 15.3341C26.5333 21.4674 22.8 22.8008 19.2 23.2008C19.7333 23.6007 20.2667 24.6674 20.2667 26.1341V30.5341V31.4255C18.9149 31.7986 17.4915 31.9988 16.0215 32.0007Z" fill="white" />
        </g>
        <defs>
            <clipPath id="clip0_8_1487">
                <rect width="32" height="32" fill="white" />
            </clipPath>
        </defs>
    </symbol>
    <symbol id="icon-social-subsocial" viewBox="0 0 32 32">
        <circle cx="16" cy="16" r="16" fill="#009CF0" />
        <path fill-rule="evenodd" clip-rule="evenodd" d="M10 9.36806C10 6.03553 12.686 3.33398 15.9993 3.33398C19.3127 3.33398 21.9987 6.03553 21.9987 9.36806V9.5958C21.9987 10.4614 21.2969 11.1632 20.4313 11.1632C19.5656 11.1632 18.8639 10.4614 18.8639 9.5958V9.47678C18.8639 7.88558 17.5814 6.59565 15.9993 6.59565C14.4173 6.59565 13.1348 7.88557 13.1348 9.47678V13.1733C13.1348 13.9841 13.4678 14.7167 14.0037 15.2403L17.4599 18.5604L17.4933 18.5926C17.6871 18.7787 17.6135 19.1015 17.3518 19.1622C16.9171 19.2629 16.4644 19.3161 15.9993 19.3161C12.686 19.3161 10 16.6146 10 13.2821V9.36806ZM22 22.6332C22 25.9658 19.314 28.6673 16.0007 28.6673C12.6873 28.6673 10.0013 25.9658 10.0013 22.6332V22.4067C10.0013 21.5411 10.7031 20.8393 11.5687 20.8393C12.4344 20.8393 13.1361 21.5411 13.1361 22.4067V22.5245C13.1361 24.1157 14.4186 25.4057 16.0007 25.4057C17.5827 25.4057 18.8652 24.1157 18.8652 22.5245V18.828C18.8652 18.0172 18.5322 17.2846 17.9963 16.761L14.5401 13.4409L14.5067 13.4087C14.3129 13.2226 14.3865 12.8998 14.6482 12.8391C15.0829 12.7384 15.5356 12.6852 16.0007 12.6852C19.314 12.6852 22 15.3867 22 18.7192V22.6332Z" fill="white" />
    </symbol>
    <symbol id="icon-social-telegram" viewBox="0 0 32 32">
        <circle cx="16" cy="16" r="16" fill="#009CF0" />
        <path fill-rule="evenodd" clip-rule="evenodd" d="M21.7752 9.59124C21.9798 9.50968 22.2031 9.4821 22.4223 9.51133C22.6416 9.54056 22.8488 9.62554 23.0228 9.75757C23.1969 9.88961 23.3314 10.0639 23.4127 10.2627C23.494 10.4615 23.5191 10.6776 23.4855 10.8888C23.0005 13.9344 22.1114 19.5153 21.6394 22.4778C21.6068 22.6828 21.5199 22.8761 21.3872 23.0392C21.2545 23.2023 21.0805 23.3296 20.882 23.4088C20.6835 23.4879 20.4672 23.5163 20.254 23.4911C20.0408 23.4659 19.8379 23.388 19.665 23.265C17.9954 22.0771 15.4922 20.2961 14.2213 19.3916C14.1232 19.3218 14.0422 19.232 13.984 19.1287C13.9258 19.0253 13.8917 18.9109 13.8843 18.7935C13.8769 18.676 13.8963 18.5585 13.9411 18.4491C13.9859 18.3396 14.055 18.2411 14.1436 18.1603C15.3081 17.0982 17.6275 14.9829 19.2234 13.5274C19.261 13.4929 19.2839 13.446 19.2876 13.3961C19.2913 13.3462 19.2755 13.2967 19.2434 13.2573C19.2113 13.218 19.1652 13.1917 19.114 13.1835C19.0629 13.1753 19.0104 13.1859 18.9669 13.2131C16.9207 14.5018 13.787 16.4753 12.2511 17.4426C11.9633 17.6239 11.6398 17.7458 11.3009 17.8008C10.962 17.8558 10.615 17.8426 10.2816 17.7621C9.43594 17.5579 8.21609 17.2634 7.13052 17.0014C6.96056 16.9603 6.80834 16.8686 6.69553 16.7392C6.58272 16.6097 6.51508 16.4492 6.50224 16.2805C6.4894 16.1118 6.53202 15.9435 6.62403 15.7995C6.71604 15.6556 6.85274 15.5433 7.01467 15.4787C10.7937 13.9714 18.1891 11.0218 21.7752 9.59124Z" fill="white" />
    </symbol>
    <symbol id="icon-social-twitter" viewBox="0 0 32 32">
        <circle cx="16" cy="16" r="16" fill="#009CF0" />
        <path d="M25.5 11.2314C24.8306 11.525 24.1174 11.7196 23.3737 11.8141C24.1388 11.3574 24.7226 10.6396 24.9971 9.7745C24.2839 10.1997 23.4964 10.5001 22.6571 10.6678C21.9799 9.94663 21.0146 9.5 19.9616 9.5C17.9186 9.5 16.2739 11.1583 16.2739 13.1911C16.2739 13.4836 16.2986 13.7649 16.3594 14.0326C13.2915 13.883 10.5769 12.4126 8.75325 10.1728C8.43487 10.7251 8.24813 11.3574 8.24813 12.038C8.24813 13.316 8.90625 14.4489 9.88725 15.1047C9.29437 15.0935 8.71275 14.9214 8.22 14.6502C8.22 14.6615 8.22 14.6761 8.22 14.6907C8.22 16.484 9.49912 17.9735 11.1765 18.3166C10.8761 18.3988 10.5487 18.4381 10.209 18.4381C9.97275 18.4381 9.73425 18.4246 9.51038 18.3751C9.9885 19.8365 11.3453 20.9109 12.9585 20.9457C11.703 21.9279 10.1089 22.5196 8.38313 22.5196C8.0805 22.5196 7.79025 22.5061 7.5 22.469C9.13462 23.5231 11.0719 24.125 13.161 24.125C19.9515 24.125 23.664 18.5 23.664 13.6242C23.664 13.4611 23.6584 13.3036 23.6505 13.1473C24.3829 12.6275 24.9982 11.9784 25.5 11.2314Z" fill="white" />
    </symbol>
    <symbol id="icon-checked" viewBox="0 0 18 14">
        <path d="M6.3548 13.1682C6.13369 13.1682 5.91258 13.0836 5.74413 12.9152L0.453573 7.62445C0.115736 7.28677 0.115736 6.74079 0.453573 6.40311C0.791251 6.06543 1.33707 6.06543 1.67491 6.40311L6.3548 11.083L16.3256 1.11239C16.6633 0.774711 17.2091 0.774711 17.5469 1.11239C17.8846 1.45023 17.8846 1.99605 17.5469 2.33388L6.96563 12.9152C6.79719 13.0836 6.57592 13.1682 6.3548 13.1682Z" />
    </symbol>
    <symbol id="icon-magnify" viewBox="0 0 20 20">
        <path fill-rule="evenodd" clip-rule="evenodd" d="M8.875 1.75C4.93997 1.75 1.75 4.93997 1.75 8.875C1.75 12.81 4.93997 16 8.875 16C12.81 16 16 12.81 16 8.875C16 4.93997 12.81 1.75 8.875 1.75ZM0.25 8.875C0.25 4.11154 4.11154 0.25 8.875 0.25C13.6385 0.25 17.5 4.11154 17.5 8.875C17.5 13.6385 13.6385 17.5 8.875 17.5C4.11154 17.5 0.25 13.6385 0.25 8.875Z" />
        <path fill-rule="evenodd" clip-rule="evenodd" d="M13.9128 13.9135C14.2057 13.6206 14.6806 13.6206 14.9734 13.9135L19.5298 18.4698C19.8226 18.7627 19.8226 19.2376 19.5298 19.5305C19.2369 19.8234 18.762 19.8234 18.4691 19.5305L13.9128 14.9742C13.6199 14.6813 13.6199 14.2064 13.9128 13.9135Z" />
    </symbol>
    <symbol id="icon-triangle" viewBox="0 0 8 4">
        <path d="M3.65721 3.87333C3.8496 4.04222 4.1504 4.04222 4.34279 3.87333L7.84263 0.800946C8.17087 0.512797 7.95141 0 7.49985 0H0.500152C0.0485917 0 -0.170873 0.512798 0.157366 0.800947L3.65721 3.87333Z" />
    </symbol>
    <symbol id="icon-eye-closed" viewBox="0 0 20 10">
        <path fill-rule="evenodd" clip-rule="evenodd" d="M16.4828 2.28529C16.8416 2.07818 17.3002 2.20109 17.5074 2.55981L19.6458 6.26367C19.8529 6.62239 19.73 7.08109 19.3713 7.28819C19.0125 7.4953 18.5539 7.37239 18.3467 7.01367L16.2083 3.30981C16.0012 2.95109 16.1241 2.4924 16.4828 2.28529Z" />
        <path fill-rule="evenodd" clip-rule="evenodd" d="M12.3244 4.25479C12.7323 4.18287 13.1213 4.45524 13.1932 4.86316L13.8601 8.6454C13.9321 9.05332 13.6597 9.44232 13.2518 9.51425C12.8438 9.58617 12.4548 9.3138 12.3829 8.90588L11.716 5.12363C11.6441 4.71571 11.9165 4.32672 12.3244 4.25479Z" />
        <path fill-rule="evenodd" clip-rule="evenodd" d="M7.66745 4.25298C8.07537 4.32491 8.34774 4.7139 8.27582 5.12182L7.6088 8.90469C7.53687 9.31261 7.14787 9.58499 6.73995 9.51306C6.33203 9.44113 6.05966 9.05214 6.13159 8.64422L6.79861 4.86135C6.87053 4.45343 7.25953 4.18105 7.66745 4.25298Z" />
        <path fill-rule="evenodd" clip-rule="evenodd" d="M3.51336 2.28226C3.87208 2.48937 3.99498 2.94806 3.78787 3.30678L1.63915 7.02849C1.43204 7.38721 0.973347 7.51012 0.614627 7.30301C0.255908 7.0959 0.133001 6.63721 0.340108 6.27849L2.48884 2.55678C2.69594 2.19806 3.15464 2.07516 3.51336 2.28226Z" />
        <path fill-rule="evenodd" clip-rule="evenodd" d="M0.528675 0.248634C0.850878 -0.0116694 1.32309 0.0385101 1.5834 0.360713C3.0769 2.20937 5.77273 4.49999 10 4.49999C14.2274 4.49999 16.9232 2.20938 18.4167 0.360733C18.677 0.0385309 19.1492 -0.0116476 19.4714 0.248657C19.7936 0.508961 19.8438 0.981176 19.5835 1.30338C17.9246 3.35669 14.8414 5.99999 10 5.99999C5.15865 5.99999 2.07544 3.35667 0.416596 1.30336C0.156293 0.981153 0.206472 0.508938 0.528675 0.248634Z" />
    </symbol>
    <symbol id="icon-arrow-left" viewBox="0 0 12 11">
        <path fill-rule="evenodd" clip-rule="evenodd" d="M0 5.5C0 5.22386 0.223858 5 0.5 5H11.5C11.7761 5 12 5.22386 12 5.5C12 5.77614 11.7761 6 11.5 6H0.5C0.223858 6 0 5.77614 0 5.5Z" />
        <path fill-rule="evenodd" clip-rule="evenodd" d="M5.35355 0.646447C5.54882 0.841709 5.54882 1.15829 5.35355 1.35355L1.20711 5.5L5.35355 9.64645C5.54882 9.84171 5.54882 10.1583 5.35355 10.3536C5.15829 10.5488 4.84171 10.5488 4.64645 10.3536L0.146447 5.85355C-0.0488155 5.65829 -0.0488155 5.34171 0.146447 5.14645L4.64645 0.646447C4.84171 0.451184 5.15829 0.451184 5.35355 0.646447Z" />
    </symbol>
    <symbol id="icon-arrow-right" viewBox="0 0 12 11">
        <path fill-rule="evenodd" clip-rule="evenodd" d="M0 5.5C0 5.22386 0.223858 5 0.5 5H11.5C11.7761 5 12 5.22386 12 5.5C12 5.77614 11.7761 6 11.5 6H0.5C0.223858 6 0 5.77614 0 5.5Z" />
        <path fill-rule="evenodd" clip-rule="evenodd" d="M6.64645 0.646447C6.84171 0.451184 7.15829 0.451184 7.35355 0.646447L11.8536 5.14645C12.0488 5.34171 12.0488 5.65829 11.8536 5.85355L7.35355 10.3536C7.15829 10.5488 6.84171 10.5488 6.64645 10.3536C6.45118 10.1583 6.45118 9.84171 6.64645 9.64645L10.7929 5.5L6.64645 1.35355C6.45118 1.15829 6.45118 0.841709 6.64645 0.646447Z" />
    </symbol>
    <symbol id="icon-arrow-up" viewBox="0 0 16 16">
        <path fill-rule="evenodd" clip-rule="evenodd" d="M8 2C8.27614 2 8.5 2.22386 8.5 2.5V13.5C8.5 13.7761 8.27614 14 8 14C7.72386 14 7.5 13.7761 7.5 13.5V2.5C7.5 2.22386 7.72386 2 8 2Z" />
        <path fill-rule="evenodd" clip-rule="evenodd" d="M7.64645 2.14645C7.84171 1.95118 8.15829 1.95118 8.35355 2.14645L12.8536 6.64645C13.0488 6.84171 13.0488 7.15829 12.8536 7.35355C12.6583 7.54882 12.3417 7.54882 12.1464 7.35355L8 3.20711L3.85355 7.35355C3.65829 7.54882 3.34171 7.54882 3.14645 7.35355C2.95118 7.15829 2.95118 6.84171 3.14645 6.64645L7.64645 2.14645Z" />
    </symbol>
    <symbol id="icon-arrow-down" viewBox="0 0 16 16">
        <path fill-rule="evenodd" clip-rule="evenodd" d="M8 2C8.27614 2 8.5 2.22386 8.5 2.5V13.5C8.5 13.7761 8.27614 14 8 14C7.72386 14 7.5 13.7761 7.5 13.5V2.5C7.5 2.22386 7.72386 2 8 2Z" />
        <path fill-rule="evenodd" clip-rule="evenodd" d="M3.14645 8.64645C3.34171 8.45118 3.65829 8.45118 3.85355 8.64645L8 12.7929L12.1464 8.64645C12.3417 8.45118 12.6583 8.45118 12.8536 8.64645C13.0488 8.84171 13.0488 9.15829 12.8536 9.35355L8.35355 13.8536C8.15829 14.0488 7.84171 14.0488 7.64645 13.8536L3.14645 9.35355C2.95118 9.15829 2.95118 8.84171 3.14645 8.64645Z" />
    </symbol>
    <symbol id="icon-pencil" viewBox="0 0 19 19">
        <path fill-rule="evenodd" clip-rule="evenodd" d="M11.6893 1C11.9706 0.718696 12.3522 0.560661 12.75 0.560661C13.1478 0.560661 13.5294 0.718696 13.8107 1L18 5.18934C18.2813 5.47065 18.4393 5.85218 18.4393 6.25C18.4393 6.64782 18.2813 7.02936 18 7.31066L6.75 18.5607C6.61072 18.6999 6.44536 18.8104 6.26337 18.8858C6.08138 18.9612 5.88632 19 5.68934 19H1.5C1.10218 19 0.720645 18.842 0.43934 18.5607C0.158035 18.2794 0 17.8978 0 17.5V13.3107C-5.96046e-08 13.1137 0.0387985 12.9186 0.114181 12.7366C0.189562 12.5546 0.300052 12.3893 0.43934 12.25L11.6893 1ZM16.9393 6.25L12.75 2.06066L1.5 13.3107L0.975629 12.7863L1.5 13.3107L1.5 17.5L5.68934 17.5L16.9393 6.25Z" />
        <path fill-rule="evenodd" clip-rule="evenodd" d="M9.21967 3.46967C9.51256 3.17678 9.98744 3.17678 10.2803 3.46967L15.5303 8.71967C15.8232 9.01256 15.8232 9.48744 15.5303 9.78033C15.2374 10.0732 14.7626 10.0732 14.4697 9.78033L9.21967 4.53033C8.92678 4.23744 8.92678 3.76256 9.21967 3.46967Z" />
        <path fill-rule="evenodd" clip-rule="evenodd" d="M0.267399 12.5174C0.560293 12.2245 1.03517 12.2245 1.32806 12.5174L6.48244 17.6717C6.77533 17.9646 6.77533 18.4395 6.48244 18.7324C6.18954 19.0253 5.71467 19.0253 5.42178 18.7324L0.2674 13.578C-0.0254938 13.2851 -0.0254938 12.8103 0.267399 12.5174Z" />
    </symbol>
    <symbol id="icon-carret-left" viewBox="0 0 7 12">
        <path fill-rule="evenodd" clip-rule="evenodd" d="M6.35355 0.646447C6.54882 0.841709 6.54882 1.15829 6.35355 1.35355L1.70711 6L6.35355 10.6464C6.54882 10.8417 6.54882 11.1583 6.35355 11.3536C6.15829 11.5488 5.84171 11.5488 5.64645 11.3536L0.646447 6.35355C0.451184 6.15829 0.451184 5.84171 0.646447 5.64645L5.64645 0.646447C5.84171 0.451184 6.15829 0.451184 6.35355 0.646447Z" />
    </symbol>
    <symbol id="icon-carret-right" viewBox="0 0 7 12">
        <path fill-rule="evenodd" clip-rule="evenodd" d="M0.646447 0.646447C0.841709 0.451184 1.15829 0.451184 1.35355 0.646447L6.35355 5.64645C6.54882 5.84171 6.54882 6.15829 6.35355 6.35355L1.35355 11.3536C1.15829 11.5488 0.841709 11.5488 0.646447 11.3536C0.451184 11.1583 0.451184 10.8417 0.646447 10.6464L5.29289 6L0.646447 1.35355C0.451184 1.15829 0.451184 0.841709 0.646447 0.646447Z" />
    </symbol>
    <symbol id="icon-close" viewBox="0 0 16 16">
        <path fill-rule="evenodd" clip-rule="evenodd" d="M15.2803 0.71967C15.5732 1.01256 15.5732 1.48744 15.2803 1.78033L1.78033 15.2803C1.48744 15.5732 1.01256 15.5732 0.71967 15.2803C0.426777 14.9874 0.426777 14.5126 0.71967 14.2197L14.2197 0.71967C14.5126 0.426777 14.9874 0.426777 15.2803 0.71967Z" />
        <path fill-rule="evenodd" clip-rule="evenodd" d="M0.71967 0.71967C1.01256 0.426777 1.48744 0.426777 1.78033 0.71967L15.2803 14.2197C15.5732 14.5126 15.5732 14.9874 15.2803 15.2803C14.9874 15.5732 14.5126 15.5732 14.2197 15.2803L0.71967 1.78033C0.426777 1.48744 0.426777 1.01256 0.71967 0.71967Z" />
    </symbol>
    <symbol id="icon-burn" viewBox="0 0 14 16">
        <path fill-rule="evenodd" clip-rule="evenodd" d="M10.6609 9.61433C10.9645 9.66118 11.1723 9.94241 11.1249 10.2425C10.9883 11.1066 10.5775 11.9056 9.95159 12.5241C9.32569 13.1425 8.51713 13.5485 7.64257 13.6834C7.33889 13.7303 7.05428 13.525 7.00686 13.2249C6.95945 12.9248 7.16719 12.6436 7.47087 12.5968C8.11236 12.4978 8.70545 12.2 9.16454 11.7464C9.62364 11.2927 9.92501 10.7067 10.0252 10.0728C10.0726 9.77276 10.3572 9.56748 10.6609 9.61433Z" />
        <path fill-rule="evenodd" clip-rule="evenodd" d="M7.93013 0.880785C8.14927 0.678969 8.49076 0.684765 8.70276 0.893899C10.723 2.8868 13.4001 5.78325 13.4001 9.60923C13.4001 11.2864 12.7258 12.895 11.5256 14.0809C10.3253 15.2669 8.69748 15.9332 7.0001 15.9332C5.30271 15.9332 3.67485 15.2669 2.47461 14.0809C1.27438 12.895 0.600098 11.2864 0.600098 9.60923C0.600098 7.73948 1.55236 5.79932 2.64318 4.17444C2.80938 3.92687 3.14454 3.8545 3.4001 4.01099L3.40018 4.01104C3.40541 4.01425 3.4106 4.01754 3.41572 4.02091L5.66094 5.49993L7.80704 1.04669C7.83713 0.984258 7.87887 0.92799 7.93007 0.880841L7.93013 0.880785ZM8.47048 2.22813L6.38952 6.54621C6.32008 6.69029 6.19074 6.79745 6.03506 6.83989C5.87938 6.88233 5.71272 6.85586 5.57835 6.76734L3.2695 5.2464C2.36521 6.68951 1.71314 8.22147 1.71314 9.60923C1.71314 10.9947 2.27016 12.3235 3.26165 13.3032C4.25315 14.2829 5.59791 14.8333 7.0001 14.8333C8.40229 14.8333 9.74704 14.2829 10.7385 13.3032C11.73 12.3235 12.2871 10.9947 12.2871 9.60923C12.2871 6.5846 10.3552 4.1567 8.47048 2.22813Z" />
    </symbol>
    <symbol id="icon-badge-nft" viewBox="0 0 24 24">
        <path d="M0 0H20C22.2091 0 24 1.79086 24 4V24H4C1.79086 24 0 22.2091 0 20V0Z" fill="#D6E7FF" />
        <path d="M5.87178 11.352V15H4.76778V9.32H5.64778L8.58378 13.064V9.328H9.68778V15H8.76778L5.87178 11.352ZM10.8693 15V9.32H14.6853V10.288H11.9733V11.752H14.2293V12.648H11.9733V15H10.8693ZM19.7111 10.288H17.8951V15H16.7991V10.288H14.9831V9.32H19.7111V10.288Z" fill="#4080CA" />
    </symbol>
    <symbol id="icon-badge-gear" viewBox="0 0 24 24" fill="none">
        <path d="M0 0H20C22.2091 0 24 1.79086 24 4V24H4C1.79086 24 0 22.2091 0 20V0Z" fill="#D9B164" />
        <path d="M12 15C13.6569 15 15 13.6569 15 12C15 10.3431 13.6569 9 12 9C10.3431 9 9 10.3431 9 12C9 13.6569 10.3431 15 12 15Z" stroke="white" stroke-linecap="round" stroke-linejoin="round" />
        <path d="M11.6795 6.7596L10.5001 5.87535C10.4368 5.82775 10.3632 5.79587 10.2851 5.78234C10.2071 5.7688 10.127 5.774 10.0514 5.7975C9.68614 5.91188 9.33178 6.0585 8.99248 6.23562C8.92225 6.27246 8.86178 6.32548 8.81607 6.39029C8.77036 6.45511 8.74072 6.52987 8.7296 6.60839L8.52111 8.06783C8.44165 8.13827 8.36384 8.21154 8.28771 8.28762C8.2116 8.36374 8.13832 8.44156 8.06786 8.52109L8.06783 8.52111L6.60865 8.72978C6.53025 8.74087 6.4556 8.77042 6.39087 8.81602C6.32613 8.86161 6.27316 8.92194 6.23631 8.99203C6.05891 9.33118 5.91201 9.68542 5.79734 10.0506C5.77373 10.1263 5.76846 10.2065 5.78197 10.2847C5.79548 10.3629 5.82738 10.4367 5.87504 10.5001L6.7596 11.6795C6.75322 11.7855 6.75001 11.8923 6.74998 11.9999C6.74998 12.1076 6.75319 12.2144 6.7596 12.3205L6.7596 12.3205L5.87535 13.4998C5.82775 13.5631 5.79587 13.6368 5.78234 13.7148C5.7688 13.7928 5.774 13.873 5.7975 13.9486C5.91188 14.3138 6.0585 14.6682 6.23562 15.0075C6.27246 15.0777 6.32548 15.1382 6.39029 15.1839C6.45511 15.2296 6.52987 15.2592 6.60839 15.2704L8.06782 15.4788C8.13827 15.5583 8.21153 15.6361 8.28762 15.7122C8.36373 15.7884 8.44155 15.8616 8.52109 15.9321L8.52111 15.9321L8.72978 17.3913C8.74086 17.4697 8.77042 17.5444 8.81602 17.6091C8.86161 17.6738 8.92194 17.7268 8.99202 17.7636C9.33117 17.941 9.68542 18.0879 10.0506 18.2026C10.1263 18.2262 10.2065 18.2315 10.2847 18.218C10.3628 18.2045 10.4367 18.1726 10.5001 18.1249L11.6795 17.2404C11.7855 17.2467 11.8923 17.2499 11.9999 17.25C12.1076 17.25 12.2144 17.2468 12.3205 17.2404L12.3205 17.2404L13.4998 18.1246C13.5631 18.1722 13.6368 18.2041 13.7148 18.2176C13.7928 18.2312 13.873 18.226 13.9486 18.2025C14.3138 18.0881 14.6682 17.9415 15.0075 17.7643C15.0777 17.7275 15.1382 17.6745 15.1839 17.6097C15.2296 17.5448 15.2592 17.4701 15.2704 17.3916L15.4788 15.9321C15.5583 15.8617 15.6361 15.7884 15.7122 15.7123C15.7884 15.6362 15.8616 15.5584 15.9321 15.4789L15.9321 15.4788L17.3913 15.2702C17.4697 15.2591 17.5444 15.2295 17.6091 15.1839C17.6738 15.1383 17.7268 15.078 17.7636 15.0079C17.941 14.6688 18.0879 14.3145 18.2026 13.9494C18.2262 13.8737 18.2315 13.7934 18.218 13.7153C18.2045 13.6371 18.1726 13.5633 18.1249 13.4999L17.2404 12.3205C17.2467 12.2145 17.2499 12.1077 17.25 12C17.25 11.8924 17.2468 11.7856 17.2404 11.6795L17.2404 11.6795L18.1246 10.5001C18.1722 10.4368 18.2041 10.3632 18.2176 10.2851C18.2312 10.2071 18.226 10.127 18.2025 10.0514C18.0881 9.68614 17.9415 9.33178 17.7643 8.99248C17.7275 8.92225 17.6745 8.86178 17.6097 8.81607C17.5448 8.77036 17.4701 8.74072 17.3916 8.7296L15.9321 8.52111C15.8617 8.44165 15.7884 8.36384 15.7123 8.28771C15.6362 8.2116 15.5584 8.13832 15.4789 8.06786L15.4788 8.06783L15.2702 6.60865C15.2591 6.53025 15.2295 6.4556 15.1839 6.39087C15.1383 6.32613 15.078 6.27316 15.0079 6.23631C14.6688 6.05891 14.3145 5.91201 13.9494 5.79734C13.8737 5.77373 13.7934 5.76846 13.7153 5.78197C13.6371 5.79548 13.5633 5.82738 13.4999 5.87504L12.3205 6.7596C12.2145 6.75322 12.1077 6.75001 12 6.74998C11.8924 6.74998 11.7856 6.75319 11.6795 6.7596L11.6795 6.7596Z" stroke="white" stroke-linecap="round" stroke-linejoin="round" />
    </symbol>
    <symbol id="icon-badge-crown" viewBox="0 0 24 24" fill="none">
        <path d="M0 0H20C22.2091 0 24 1.79086 24 4V24H4C1.79086 24 0 22.2091 0 20V0Z" fill="#9378DD" />
        <path d="M6.82037 16.251C6.83596 16.3167 6.86468 16.3786 6.90481 16.433C6.94494 16.4873 6.99565 16.533 7.05388 16.5672C7.11211 16.6014 7.17667 16.6235 7.24367 16.6322C7.31066 16.6408 7.37871 16.6358 7.44372 16.6174C10.4243 15.7945 13.5721 15.7942 16.5528 16.6166C16.6178 16.6349 16.6858 16.6399 16.7528 16.6313C16.8198 16.6226 16.8843 16.6005 16.9425 16.5663C17.0008 16.5321 17.0514 16.4865 17.0916 16.4322C17.1317 16.3779 17.1604 16.316 17.176 16.2503L18.7691 9.48053C18.7904 9.3899 18.786 9.29512 18.7564 9.20686C18.7268 9.1186 18.6731 9.04036 18.6014 8.98096C18.5297 8.92157 18.4428 8.88337 18.3506 8.87067C18.2583 8.85797 18.1644 8.87128 18.0793 8.90909L14.9178 10.3142C14.8037 10.3649 14.6747 10.3711 14.5562 10.3315C14.4377 10.2919 14.3384 10.2093 14.2777 10.1001L12.4369 6.78672C12.3936 6.70877 12.3302 6.64383 12.2534 6.59861C12.1765 6.55339 12.089 6.52954 11.9998 6.52954C11.9107 6.52954 11.8231 6.55339 11.7463 6.59861C11.6694 6.64383 11.6061 6.70877 11.5628 6.78672L9.72198 10.1001C9.66131 10.2093 9.56196 10.2919 9.44348 10.3315C9.32501 10.3711 9.19599 10.3649 9.08183 10.3142L5.91987 8.90888C5.8348 8.87108 5.74087 8.85777 5.64866 8.87045C5.55644 8.88314 5.46959 8.92132 5.3979 8.98069C5.3262 9.04006 5.2725 9.11826 5.24285 9.2065C5.21319 9.29473 5.20876 9.3895 5.23004 9.48012L6.82037 16.251Z" stroke="white" stroke-linecap="round" stroke-linejoin="round" />
    </symbol>
    <symbol id="icon-badge-coin" viewBox="0 0 24 24">
        <path d="M0 0H20C22.2091 0 24 1.79086 24 4V24H4C1.79086 24 0 22.2091 0 20V0Z" fill="#27A28C" />
        <path fill-rule="evenodd" clip-rule="evenodd" d="M7.61333 8.83266C6.47402 9.3585 6 9.98416 6 10.5C6 11.0158 6.47402 11.6415 7.61333 12.1673C8.71018 12.6736 10.2606 13 12 13C13.7394 13 15.2898 12.6736 16.3867 12.1673C17.526 11.6415 18 11.0158 18 10.5C18 9.98416 17.526 9.3585 16.3867 8.83266C15.2898 8.32642 13.7394 8 12 8C10.2606 8 8.71018 8.32642 7.61333 8.83266ZM7.19428 7.9247C8.44997 7.34515 10.1496 7 12 7C13.8504 7 15.55 7.34515 16.8057 7.9247C18.0189 8.48465 19 9.35899 19 10.5C19 11.641 18.0189 12.5154 16.8057 13.0753C15.55 13.6549 13.8504 14 12 14C10.1496 14 8.44997 13.6549 7.19428 13.0753C5.98106 12.5154 5 11.641 5 10.5C5 9.35899 5.98106 8.48465 7.19428 7.9247Z" fill="white" />
        <path fill-rule="evenodd" clip-rule="evenodd" d="M12 13C12.2761 13 12.5 13.2239 12.5 13.5V16.5C12.5 16.7761 12.2761 17 12 17C11.7239 17 11.5 16.7761 11.5 16.5V13.5C11.5 13.2239 11.7239 13 12 13Z" fill="white" />
        <path fill-rule="evenodd" clip-rule="evenodd" d="M5.5 10C5.77614 10 6 10.2239 6 10.5V13.5C6 13.9591 6.4025 14.5797 7.47361 15.1153C8.51262 15.6348 10.0567 16 12 16C13.9433 16 15.4874 15.6348 16.5264 15.1153C17.5975 14.5797 18 13.9591 18 13.5V10.5C18 10.2239 18.2239 10 18.5 10C18.7761 10 19 10.2239 19 10.5V13.5C19 14.5409 18.1525 15.4203 16.9736 16.0097C15.7626 16.6152 14.0567 17 12 17C9.94329 17 8.23738 16.6152 7.02639 16.0097C5.8475 15.4203 5 14.5409 5 13.5V10.5C5 10.2239 5.22386 10 5.5 10Z" fill="white" />
        <path fill-rule="evenodd" clip-rule="evenodd" d="M16 12.3817C16.2761 12.3817 16.5 12.6056 16.5 12.8817V15.8818C16.5 16.1579 16.2761 16.3818 16 16.3818C15.7239 16.3818 15.5 16.1579 15.5 15.8818V12.8817C15.5 12.6056 15.7239 12.3817 16 12.3817Z" fill="white" />
        <path fill-rule="evenodd" clip-rule="evenodd" d="M8 12.3817C8.27614 12.3817 8.5 12.6056 8.5 12.8817V15.8817C8.5 16.1579 8.27614 16.3817 8 16.3817C7.72386 16.3817 7.5 16.1579 7.5 15.8817V12.8817C7.5 12.6056 7.72386 12.3817 8 12.3817Z" fill="white" />
    </symbol>
    <symbol id="icon-file-arrow-up" viewBox="0 0 34 40">
        <path fill-rule="evenodd" clip-rule="evenodd" d="M3.49858 3.125C3.39913 3.125 3.30375 3.16451 3.23342 3.23484C3.16309 3.30516 3.12358 3.40054 3.12358 3.5V36.5C3.12358 36.5995 3.16309 36.6948 3.23342 36.7652C3.30374 36.8355 3.39913 36.875 3.49858 36.875H30.5C30.5493 36.875 30.5981 36.8653 30.6436 36.8465C30.6891 36.8276 30.7304 36.8 30.7652 36.7652C30.8 36.7304 30.8277 36.689 30.8465 36.6435C30.8653 36.598 30.875 36.5493 30.875 36.5V12.966L21.0341 3.125H3.49858ZM1.64243 1.64385C2.13471 1.15156 2.80239 0.875 3.49858 0.875H21.5C21.7984 0.875 22.0846 0.993526 22.2955 1.2045L32.7955 11.7045C33.0065 11.9155 33.125 12.2016 33.125 12.5V36.5C33.125 36.8447 33.0572 37.1861 32.9252 37.5045C32.7933 37.823 32.6 38.1124 32.3562 38.3562C32.1125 38.5999 31.8231 38.7933 31.5046 38.9252C31.1861 39.0571 30.8448 39.125 30.5 39.125H3.49858C2.80239 39.125 2.13471 38.8485 1.64243 38.3562C1.15014 37.8639 0.873585 37.1962 0.873585 36.5V3.5C0.873585 2.80381 1.15015 2.13613 1.64243 1.64385Z" />
        <path fill-rule="evenodd" clip-rule="evenodd" d="M21.5 0.875C22.1213 0.875 22.625 1.37868 22.625 2V11.375H32.0015C32.6228 11.375 33.1265 11.8787 33.1265 12.5C33.1265 13.1213 32.6228 13.625 32.0015 13.625H21.5C20.8787 13.625 20.375 13.1213 20.375 12.5V2C20.375 1.37868 20.8787 0.875 21.5 0.875Z" />
        <path fill-rule="evenodd" clip-rule="evenodd" d="M16.2045 17.7045C16.6438 17.2652 17.3562 17.2652 17.7955 17.7045L23.0455 22.9545C23.4848 23.3938 23.4848 24.1062 23.0455 24.5455C22.6062 24.9848 21.8938 24.9848 21.4545 24.5455L17 20.091L12.5455 24.5455C12.1062 24.9848 11.3938 24.9848 10.9545 24.5455C10.5152 24.1062 10.5152 23.3938 10.9545 22.9545L16.2045 17.7045Z" />
        <path fill-rule="evenodd" clip-rule="evenodd" d="M17 17.375C17.6213 17.375 18.125 17.8787 18.125 18.5V30.5C18.125 31.1213 17.6213 31.625 17 31.625C16.3787 31.625 15.875 31.1213 15.875 30.5V18.5C15.875 17.8787 16.3787 17.375 17 17.375Z" />
    </symbol>
    <symbol id="icon-close-circle" viewBox="0 0 16 16">
        <path fill-rule="evenodd" clip-rule="evenodd" d="M8 2.5C4.96243 2.5 2.5 4.96243 2.5 8C2.5 11.0376 4.96243 13.5 8 13.5C11.0376 13.5 13.5 11.0376 13.5 8C13.5 4.96243 11.0376 2.5 8 2.5ZM1.5 8C1.5 4.41015 4.41015 1.5 8 1.5C11.5899 1.5 14.5 4.41015 14.5 8C14.5 11.5899 11.5899 14.5 8 14.5C4.41015 14.5 1.5 11.5899 1.5 8Z" />
        <path fill-rule="evenodd" clip-rule="evenodd" d="M10.3536 5.64645C10.5488 5.84171 10.5488 6.15829 10.3536 6.35355L6.35355 10.3536C6.15829 10.5488 5.84171 10.5488 5.64645 10.3536C5.45118 10.1583 5.45118 9.84171 5.64645 9.64645L9.64645 5.64645C9.84171 5.45118 10.1583 5.45118 10.3536 5.64645Z" />
        <path fill-rule="evenodd" clip-rule="evenodd" d="M5.64645 5.64645C5.84171 5.45118 6.15829 5.45118 6.35355 5.64645L10.3536 9.64645C10.5488 9.84171 10.5488 10.1583 10.3536 10.3536C10.1583 10.5488 9.84171 10.5488 9.64645 10.3536L5.64645 6.35355C5.45118 6.15829 5.45118 5.84171 5.64645 5.64645Z" />
    </symbol>
    <symbol id="icon-clock" viewBox="0 0 20 20">
        <path fill-rule="evenodd" clip-rule="evenodd" d="M10 1.75C5.44365 1.75 1.75 5.44365 1.75 10C1.75 14.5563 5.44365 18.25 10 18.25C14.5563 18.25 18.25 14.5563 18.25 10C18.25 5.44365 14.5563 1.75 10 1.75ZM0.25 10C0.25 4.61522 4.61522 0.25 10 0.25C15.3848 0.25 19.75 4.61522 19.75 10C19.75 15.3848 15.3848 19.75 10 19.75C4.61522 19.75 0.25 15.3848 0.25 10Z" fill="#009CF0" />
        <path fill-rule="evenodd" clip-rule="evenodd" d="M10 4C10.4142 4 10.75 4.33579 10.75 4.75V9.25H15.25C15.6642 9.25 16 9.58579 16 10C16 10.4142 15.6642 10.75 15.25 10.75H10C9.58579 10.75 9.25 10.4142 9.25 10V4.75C9.25 4.33579 9.58579 4 10 4Z" fill="#009CF0" />
    </symbol>
    <symbol id="icon-sorting-initial" viewBox="0 0 12 14">
        <path fill-rule="evenodd" clip-rule="evenodd" d="M0.646447 10.6464C0.841709 10.4512 1.15829 10.4512 1.35355 10.6464L3 12.2929L4.64645 10.6464C4.84171 10.4512 5.15829 10.4512 5.35355 10.6464C5.54882 10.8417 5.54882 11.1583 5.35355 11.3536L3.35355 13.3536C3.15829 13.5488 2.84171 13.5488 2.64645 13.3536L0.646447 11.3536C0.451184 11.1583 0.451184 10.8417 0.646447 10.6464Z" />
        <path fill-rule="evenodd" clip-rule="evenodd" d="M3 0.5C3.27614 0.5 3.5 0.723858 3.5 1V13C3.5 13.2761 3.27614 13.5 3 13.5C2.72386 13.5 2.5 13.2761 2.5 13V1C2.5 0.723858 2.72386 0.5 3 0.5Z" />
        <path fill-rule="evenodd" clip-rule="evenodd" d="M8.64645 0.646447C8.84171 0.451184 9.15829 0.451184 9.35355 0.646447L11.3536 2.64645C11.5488 2.84171 11.5488 3.15829 11.3536 3.35355C11.1583 3.54882 10.8417 3.54882 10.6464 3.35355L9 1.70711L7.35355 3.35355C7.15829 3.54882 6.84171 3.54882 6.64645 3.35355C6.45118 3.15829 6.45118 2.84171 6.64645 2.64645L8.64645 0.646447Z" />
        <path fill-rule="evenodd" clip-rule="evenodd" d="M9 0.5C9.27614 0.5 9.5 0.723858 9.5 1V13C9.5 13.2761 9.27614 13.5 9 13.5C8.72386 13.5 8.5 13.2761 8.5 13V1C8.5 0.723858 8.72386 0.5 9 0.5Z" />
    </symbol>
    <symbol id="icon-sorting-desc" viewBox="0 0 6 14">
        <path fill-rule="evenodd" clip-rule="evenodd" d="M0.646447 10.6464C0.841709 10.4512 1.15829 10.4512 1.35355 10.6464L3 12.2929L4.64645 10.6464C4.84171 10.4512 5.15829 10.4512 5.35355 10.6464C5.54882 10.8417 5.54882 11.1583 5.35355 11.3536L3.35355 13.3536C3.15829 13.5488 2.84171 13.5488 2.64645 13.3536L0.646447 11.3536C0.451184 11.1583 0.451184 10.8417 0.646447 10.6464Z" />
        <path fill-rule="evenodd" clip-rule="evenodd" d="M3 0.5C3.27614 0.5 3.5 0.723858 3.5 1V13C3.5 13.2761 3.27614 13.5 3 13.5C2.72386 13.5 2.5 13.2761 2.5 13V1C2.5 0.723858 2.72386 0.5 3 0.5Z" />
    </symbol>
    <symbol id="icon-sorting-asc" viewBox="0 0 6 14">
        <path fill-rule="evenodd" clip-rule="evenodd" d="M3 0.5C3.27614 0.5 3.5 0.723858 3.5 1V13C3.5 13.2761 3.27614 13.5 3 13.5C2.72386 13.5 2.5 13.2761 2.5 13V1C2.5 0.723858 2.72386 0.5 3 0.5Z" />
        <path fill-rule="evenodd" clip-rule="evenodd" d="M2.64645 0.646447C2.84171 0.451184 3.15829 0.451184 3.35355 0.646447L5.35355 2.64645C5.54882 2.84171 5.54882 3.15829 5.35355 3.35355C5.15829 3.54882 4.84171 3.54882 4.64645 3.35355L3 1.70711L1.35355 3.35355C1.15829 3.54882 0.841709 3.54882 0.646447 3.35355C0.451184 3.15829 0.451184 2.84171 0.646447 2.64645L2.64645 0.646447Z" />
    </symbol>
    <symbol id="icon-question" viewBox="0 0 16 16">
        <path fill-rule="evenodd" clip-rule="evenodd" d="M8 2.5C4.96243 2.5 2.5 4.96243 2.5 8C2.5 11.0376 4.96243 13.5 8 13.5C11.0376 13.5 13.5 11.0376 13.5 8C13.5 4.96243 11.0376 2.5 8 2.5ZM1.5 8C1.5 4.41015 4.41015 1.5 8 1.5C11.5899 1.5 14.5 4.41015 14.5 8C14.5 11.5899 11.5899 14.5 8 14.5C4.41015 14.5 1.5 11.5899 1.5 8Z" />
        <path d="M8 12C8.41421 12 8.75 11.6642 8.75 11.25C8.75 10.8358 8.41421 10.5 8 10.5C7.58579 10.5 7.25 10.8358 7.25 11.25C7.25 11.6642 7.58579 12 8 12Z" />
        <path fill-rule="evenodd" clip-rule="evenodd" d="M7.13893 4.67176C7.55007 4.50146 8.00247 4.45691 8.43892 4.54372C8.87538 4.63054 9.27629 4.84483 9.59096 5.1595C9.90563 5.47417 10.1199 5.87508 10.2067 6.31154C10.2936 6.74799 10.249 7.20039 10.0787 7.61153C9.9084 8.02266 9.62001 8.37406 9.25 8.6213C9.02061 8.77457 8.76623 8.88354 8.49997 8.94423V9.00049C8.49997 9.27663 8.27611 9.50049 7.99997 9.50049C7.72383 9.50049 7.49997 9.27663 7.49997 9.00049V8.50049C7.49997 8.36788 7.55265 8.2407 7.64642 8.14694C7.74018 8.05317 7.86736 8.00049 7.99997 8.00049C8.2472 8.00049 8.48887 7.92718 8.69443 7.78983C8.89999 7.65247 9.06021 7.45725 9.15482 7.22884C9.24943 7.00044 9.27418 6.7491 9.22595 6.50663C9.17772 6.26415 9.05867 6.04142 8.88385 5.86661C8.70904 5.69179 8.48631 5.57274 8.24383 5.52451C8.00136 5.47628 7.75002 5.50103 7.52162 5.59564C7.29321 5.69025 7.09798 5.85047 6.96063 6.05603C6.82328 6.26159 6.74997 6.50326 6.74997 6.75049C6.74997 7.02663 6.52611 7.25049 6.24997 7.25049C5.97383 7.25049 5.74997 7.02663 5.74997 6.75049C5.74997 6.30548 5.88193 5.87047 6.12916 5.50046C6.3764 5.13045 6.7278 4.84206 7.13893 4.67176Z" />
    </symbol>
    <symbol id="icon-plus" viewBox="0 0 14 14">
        <path fill-rule="evenodd" clip-rule="evenodd" d="M0.75 7C0.75 6.58579 1.08579 6.25 1.5 6.25H12.5C12.9142 6.25 13.25 6.58579 13.25 7C13.25 7.41421 12.9142 7.75 12.5 7.75H1.5C1.08579 7.75 0.75 7.41421 0.75 7Z" />
        <path fill-rule="evenodd" clip-rule="evenodd" d="M7 0.75C7.41421 0.75 7.75 1.08579 7.75 1.5V12.5C7.75 12.9142 7.41421 13.25 7 13.25C6.58579 13.25 6.25 12.9142 6.25 12.5V1.5C6.25 1.08579 6.58579 0.75 7 0.75Z" />
    </symbol>
    <symbol id="icon-minus" viewBox="0 0 14 14">
        <path fill-rule="evenodd" clip-rule="evenodd" d="M0.75 7C0.75 6.58579 1.08579 6.25 1.5 6.25H12.5C12.9142 6.25 13.25 6.58579 13.25 7C13.25 7.41421 12.9142 7.75 12.5 7.75H1.5C1.08579 7.75 0.75 7.41421 0.75 7Z" />
    </symbol>
    <symbol id="icon-copy" viewBox="0 0 12 12">
        <path fill-rule="evenodd" clip-rule="evenodd" d="M3 0.499512C3 0.223369 3.22386 -0.000488281 3.5 -0.000488281H11.5C11.7761 -0.000488281 12 0.223369 12 0.499512V8.49951C12 8.77565 11.7761 8.99951 11.5 8.99951H8.5C8.22386 8.99951 8 8.77565 8 8.49951C8 8.22337 8.22386 7.99951 8.5 7.99951H11V0.999512H4V3.49951C4 3.77565 3.77614 3.99951 3.5 3.99951C3.22386 3.99951 3 3.77565 3 3.49951V0.499512Z" />
        <path fill-rule="evenodd" clip-rule="evenodd" d="M0 3.49951C0 3.22337 0.223858 2.99951 0.5 2.99951H8.5C8.77614 2.99951 9 3.22337 9 3.49951V11.4995C9 11.7757 8.77614 11.9995 8.5 11.9995H0.5C0.223858 11.9995 0 11.7757 0 11.4995V3.49951ZM1 3.99951V10.9995H8V3.99951H1Z" />
    </symbol>
    <symbol id="icon-carret-down" viewBox="0 0 18 10">
        <path fill-rule="evenodd" clip-rule="evenodd" d="M0.96967 0.46967C1.26256 0.176777 1.73744 0.176777 2.03033 0.46967L9 7.43934L15.9697 0.46967C16.2626 0.176777 16.7374 0.176777 17.0303 0.46967C17.3232 0.762563 17.3232 1.23744 17.0303 1.53033L9.53033 9.03033C9.23744 9.32322 8.76256 9.32322 8.46967 9.03033L0.96967 1.53033C0.676777 1.23744 0.676777 0.762563 0.96967 0.46967Z" />
    </symbol>
    <symbol id="icon-circle-close" viewBox="0 0 20 20">
        <path fill-rule="evenodd" clip-rule="evenodd" d="M10 1.75C5.44365 1.75 1.75 5.44365 1.75 10C1.75 14.5563 5.44365 18.25 10 18.25C14.5563 18.25 18.25 14.5563 18.25 10C18.25 5.44365 14.5563 1.75 10 1.75ZM0.25 10C0.25 4.61522 4.61522 0.25 10 0.25C15.3848 0.25 19.75 4.61522 19.75 10C19.75 15.3848 15.3848 19.75 10 19.75C4.61522 19.75 0.25 15.3848 0.25 10Z" />
        <path fill-rule="evenodd" clip-rule="evenodd" d="M13.5303 6.46967C13.8232 6.76256 13.8232 7.23744 13.5303 7.53033L7.53033 13.5303C7.23744 13.8232 6.76256 13.8232 6.46967 13.5303C6.17678 13.2374 6.17678 12.7626 6.46967 12.4697L12.4697 6.46967C12.7626 6.17678 13.2374 6.17678 13.5303 6.46967Z" />
        <path fill-rule="evenodd" clip-rule="evenodd" d="M6.46967 6.46967C6.76256 6.17678 7.23744 6.17678 7.53033 6.46967L13.5303 12.4697C13.8232 12.7626 13.8232 13.2374 13.5303 13.5303C13.2374 13.8232 12.7626 13.8232 12.4697 13.5303L6.46967 7.53033C6.17678 7.23744 6.17678 6.76256 6.46967 6.46967Z" />
    </symbol>
    <symbol id="icon-reload" viewBox="0 0 24 24">
        <path fill-rule="evenodd" clip-rule="evenodd" d="M2.98438 4.09863C3.39859 4.09863 3.73438 4.43442 3.73438 4.84863V8.59863H7.48438C7.89859 8.59863 8.23438 8.93442 8.23438 9.34863C8.23438 9.76285 7.89859 10.0986 7.48438 10.0986H2.98438C2.57016 10.0986 2.23438 9.76285 2.23438 9.34863V4.84863C2.23438 4.43442 2.57016 4.09863 2.98438 4.09863Z" />
        <path fill-rule="evenodd" clip-rule="evenodd" d="M10.2442 3.17294C11.99 2.82567 13.7996 3.0039 15.4441 3.68509C17.0887 4.36628 18.4943 5.51983 19.4832 6.99987C20.4721 8.47991 21 10.22 21 12C21 13.78 20.4721 15.5201 19.4832 17.0001C18.4943 18.4802 17.0887 19.6337 15.4441 20.3149C13.7996 20.9961 11.99 21.1743 10.2442 20.8271C8.49834 20.4798 6.8947 19.6226 5.63602 18.364C5.34313 18.0711 5.34313 17.5962 5.63602 17.3033C5.92892 17.0104 6.40379 17.0104 6.69668 17.3033C7.74558 18.3522 9.08195 19.0665 10.5368 19.3559C11.9917 19.6453 13.4997 19.4968 14.8701 18.9291C16.2406 18.3614 17.4119 17.4001 18.236 16.1668C19.0601 14.9334 19.5 13.4834 19.5 12C19.5 10.5166 19.0601 9.0666 18.236 7.83323C17.4119 6.59986 16.2406 5.63856 14.8701 5.07091C13.4997 4.50325 11.9917 4.35473 10.5368 4.64411C9.08195 4.9335 7.74558 5.64781 6.69668 6.6967L3.51471 9.87868C3.22181 10.1716 2.74694 10.1716 2.45404 9.87868C2.16115 9.58579 2.16115 9.11092 2.45404 8.81802L5.63602 5.63604C6.8947 4.37737 8.49834 3.5202 10.2442 3.17294Z" />
    </symbol>
    <symbol id="icon-logout" viewBox="0 0 24 24">
        <path fill-rule="evenodd" clip-rule="evenodd" d="M5.99944 5.03613C5.7437 5.03613 5.49843 5.13773 5.31759 5.31857C5.13675 5.4994 5.03516 5.74467 5.03516 6.00042V18.0004C5.03516 18.2562 5.13675 18.5014 5.31759 18.6823C5.49843 18.8631 5.7437 18.9647 5.99944 18.9647H9.42801C9.84223 18.9647 10.178 19.3005 10.178 19.7147C10.178 20.1289 9.84223 20.4647 9.42801 20.4647H5.99944C5.34587 20.4647 4.71907 20.2051 4.25693 19.7429C3.79479 19.2808 3.53516 18.654 3.53516 18.0004V6.00042C3.53516 5.34685 3.79479 4.72005 4.25693 4.25791C4.71907 3.79576 5.34587 3.53613 5.99944 3.53613H9.42801C9.84223 3.53613 10.178 3.87192 10.178 4.28613C10.178 4.70035 9.84223 5.03613 9.42801 5.03613H5.99944ZM14.8977 7.18437C15.1906 6.89148 15.6655 6.89148 15.9583 7.18437L20.2441 11.4701C20.537 11.763 20.537 12.2379 20.2441 12.5307L15.9583 16.8165C15.6655 17.1094 15.1906 17.1094 14.8977 16.8165C14.6048 16.5236 14.6048 16.0487 14.8977 15.7558L17.9031 12.7504H9.42801C9.0138 12.7504 8.67801 12.4146 8.67801 12.0004C8.67801 11.5862 9.0138 11.2504 9.42801 11.2504H17.9031L14.8977 8.24503C14.6048 7.95214 14.6048 7.47727 14.8977 7.18437Z" />
    </symbol>
    <symbol id="icon-arrow-up-right" viewBox="0 0 17 16">
        <path fill-rule="evenodd" clip-rule="evenodd" d="M12.7956 3.80861C12.7712 3.74964 12.735 3.69439 12.687 3.64645C12.6391 3.59851 12.5839 3.56234 12.5249 3.53794C12.4659 3.51349 12.4013 3.5 12.3335 3.5H12.3334H5.8335C5.55735 3.5 5.3335 3.72386 5.3335 4C5.3335 4.27614 5.55735 4.5 5.8335 4.5H11.1264L3.97994 11.6464C3.78468 11.8417 3.78468 12.1583 3.97994 12.3536C4.1752 12.5488 4.49179 12.5488 4.68705 12.3536L11.8335 5.20711V10.5C11.8335 10.7761 12.0574 11 12.3335 11C12.6096 11 12.8335 10.7761 12.8335 10.5V4.00049V4C12.8335 3.999 12.8335 3.998 12.8335 3.997C12.8331 3.9303 12.8196 3.86669 12.7956 3.80861Z" />
    </symbol>
    <symbol id="icon-more-horiz" viewBox="0 0 24 24">
        <path d="M3 14C2.45185 14 1.98148 13.8037 1.58889 13.4111C1.1963 13.0185 1 12.5481 1 12C1 11.4519 1.1963 10.9815 1.58889 10.5889C1.98148 10.1963 2.45185 10 3 10C3.54815 10 4.01852 10.1963 4.41111 10.5889C4.8037 10.9815 5 11.4519 5 12C5 12.363 4.90741 12.6963 4.72222 13C4.54444 13.3037 4.3037 13.5481 4 13.7333C3.7037 13.9111 3.37037 14 3 14ZM11.5333 14C10.9852 14 10.5148 13.8037 10.1222 13.4111C9.72963 13.0185 9.53333 12.5481 9.53333 12C9.53333 11.4519 9.72963 10.9815 10.1222 10.5889C10.5148 10.1963 10.9852 10 11.5333 10C12.0815 10 12.5519 10.1963 12.9444 10.5889C13.337 10.9815 13.5333 11.4519 13.5333 12C13.5333 12.363 13.4407 12.6963 13.2556 13C13.0778 13.3037 12.837 13.5481 12.5333 13.7333C12.237 13.9111 11.9037 14 11.5333 14ZM20.0667 14C19.5185 14 19.0481 13.8037 18.6556 13.4111C18.263 13.0185 18.0667 12.5481 18.0667 12C18.0667 11.4519 18.263 10.9815 18.6556 10.5889C19.0481 10.1963 19.5185 10 20.0667 10C20.6148 10 21.0852 10.1963 21.4778 10.5889C21.8704 10.9815 22.0667 11.4519 22.0667 12C22.0667 12.363 21.9741 12.6963 21.7889 13C21.6111 13.3037 21.3704 13.5481 21.0667 13.7333C20.7704 13.9111 20.437 14 20.0667 14Z" />
    </symbol>
    <symbol id="icon-rounded-rectangle-more"  viewBox="0 0 40 40" fill="none" >
        <rect x="0.5" y="0.5" width="39" height="39" rx="7.5" />
        <path d="M11 22C10.4519 22 9.98148 21.8037 9.58889 21.4111C9.1963 21.0185 9 20.5481 9 20C9 19.4519 9.1963 18.9815 9.58889 18.5889C9.98148 18.1963 10.4519 18 11 18C11.5481 18 12.0185 18.1963 12.4111 18.5889C12.8037 18.9815 13 19.4519 13 20C13 20.363 12.9074 20.6963 12.7222 21C12.5444 21.3037 12.3037 21.5481 12 21.7333C11.7037 21.9111 11.3704 22 11 22ZM19.5333 22C18.9852 22 18.5148 21.8037 18.1222 21.4111C17.7296 21.0185 17.5333 20.5481 17.5333 20C17.5333 19.4519 17.7296 18.9815 18.1222 18.5889C18.5148 18.1963 18.9852 18 19.5333 18C20.0815 18 20.5519 18.1963 20.9444 18.5889C21.337 18.9815 21.5333 19.4519 21.5333 20C21.5333 20.363 21.4407 20.6963 21.2556 21C21.0778 21.3037 20.837 21.5481 20.5333 21.7333C20.237 21.9111 19.9037 22 19.5333 22ZM28.0667 22C27.5185 22 27.0481 21.8037 26.6556 21.4111C26.263 21.0185 26.0667 20.5481 26.0667 20C26.0667 19.4519 26.263 18.9815 26.6556 18.5889C27.0481 18.1963 27.5185 18 28.0667 18C28.6148 18 29.0852 18.1963 29.4778 18.5889C29.8704 18.9815 30.0667 19.4519 30.0667 20C30.0667 20.363 29.9741 20.6963 29.7889 21C29.6111 21.3037 29.3704 21.5481 29.0667 21.7333C28.7704 21.9111 28.437 22 28.0667 22Z" fill="#9CAAB7"/>
        <rect x="0.5" y="0.5" width="39" height="39" rx="7.5" stroke="#C9D0D7"/>
    </symbol>
    <symbol id="icon-shared" viewBox="0 0 16 16">
        <path fill-rule="evenodd" clip-rule="evenodd" d="M4 6.5C3.17157 6.5 2.5 7.17157 2.5 8C2.5 8.82843 3.17157 9.5 4 9.5C4.82843 9.5 5.5 8.82843 5.5 8C5.5 7.17157 4.82843 6.5 4 6.5ZM1.5 8C1.5 6.61929 2.61929 5.5 4 5.5C5.38071 5.5 6.5 6.61929 6.5 8C6.5 9.38071 5.38071 10.5 4 10.5C2.61929 10.5 1.5 9.38071 1.5 8Z" />
        <path fill-rule="evenodd" clip-rule="evenodd" d="M11 11C10.1716 11 9.5 11.6716 9.5 12.5C9.5 13.3284 10.1716 14 11 14C11.8284 14 12.5 13.3284 12.5 12.5C12.5 11.6716 11.8284 11 11 11ZM8.5 12.5C8.5 11.1193 9.61929 10 11 10C12.3807 10 13.5 11.1193 13.5 12.5C13.5 13.8807 12.3807 15 11 15C9.61929 15 8.5 13.8807 8.5 12.5Z" />
        <path fill-rule="evenodd" clip-rule="evenodd" d="M11 2C10.1716 2 9.5 2.67157 9.5 3.5C9.5 4.32843 10.1716 5 11 5C11.8284 5 12.5 4.32843 12.5 3.5C12.5 2.67157 11.8284 2 11 2ZM8.5 3.5C8.5 2.11929 9.61929 1 11 1C12.3807 1 13.5 2.11929 13.5 3.5C13.5 4.88071 12.3807 6 11 6C9.61929 6 8.5 4.88071 8.5 3.5Z" />
        <path fill-rule="evenodd" clip-rule="evenodd" d="M9.73896 4.31098C9.88829 4.54327 9.82104 4.85262 9.58875 5.00195L5.95306 7.33918C5.72077 7.48851 5.41141 7.42126 5.26209 7.18897C5.11276 6.95669 5.18001 6.64733 5.4123 6.498L9.048 4.16077C9.28028 4.01144 9.58964 4.0787 9.73896 4.31098Z" />
        <path fill-rule="evenodd" clip-rule="evenodd" d="M5.26209 8.81098C5.41141 8.5787 5.72077 8.51144 5.95306 8.66077L9.58875 10.998C9.82103 11.1473 9.88828 11.4567 9.73896 11.689C9.58963 11.9213 9.28027 11.9885 9.04799 11.8392L5.4123 9.50195C5.18001 9.35262 5.11276 9.04327 5.26209 8.81098Z" />
    </symbol>
    <symbol id="icon-box" viewBox="0 0 80 81">
        <g clip-path="url(#clip0_986_189332)">
            <ellipse cx="40" cy="78.5" rx="31" ry="2" fill="#006499"/>
            <path d="M40 31.5L69 32.6368V78.5L40 77.3632V31.5Z" fill="#0085CC"/>
            <path d="M40 33.7112L69 32.5V78.2888L40 79.5V33.7112Z" fill="#15ADFF"/>
            <path d="M40 33.7211L69 32.5L77 50.2789L48 51.5L40 33.7211Z" fill="#006499"/>
            <path d="M40 31.5L10 32.6368V78.5L40 77.3632V31.5Z" fill="#006499"/>
            <path d="M10 32.5L40 33.6368V79.5L10 78.3632V32.5Z" fill="#66CAFF"/>
            <path d="M10 32.5L40 33.6489L32 51.5L2 50.3511L10 32.5Z" fill="#C7EBFF"/>
            <path fill-rule="evenodd" clip-rule="evenodd" d="M53.9709 1.00058C54.2468 0.987383 54.4811 1.20028 54.4943 1.47611C54.6083 3.85856 53.0173 6.248 50.6941 8.37923C51.6566 8.7016 52.4588 9.13903 52.9902 9.72412C53.3781 10.1511 53.6234 10.6595 53.6699 11.2441C53.7159 11.8224 53.564 12.4317 53.2356 13.0634C52.5861 14.3124 51.1978 15.7414 48.9577 17.3798C46.539 19.1487 44.4061 20.4686 42.5471 21.4306C42.8132 21.7608 42.9758 22.1226 43.0368 22.5068C43.1082 22.9565 43.0349 23.4025 42.8758 23.8233C42.5626 24.6514 41.8924 25.4464 41.1419 26.1335C40.3826 26.8286 39.4984 27.4517 38.6985 27.9293C38.4614 28.0709 38.1544 27.9934 38.0129 27.7563C37.8713 27.5192 37.9488 27.2123 38.1858 27.0707C38.9412 26.6197 39.7678 26.0357 40.4666 25.3959C41.1741 24.7482 41.7093 24.0807 41.9404 23.4696C42.0535 23.1707 42.0871 22.9029 42.0492 22.6635C42.0119 22.4287 41.9006 22.1874 41.6674 21.9431C41.6514 21.9264 41.6349 21.9096 41.6178 21.8929C40.4208 22.4639 39.3487 22.8775 38.3981 23.1621C37.1015 23.5502 36.018 23.7021 35.1437 23.6786C34.2754 23.6552 33.5786 23.4572 33.0948 23.1077C32.5965 22.7478 32.3307 22.2247 32.3913 21.6512C32.4494 21.1004 32.7974 20.6042 33.3065 20.2297C34.3271 19.479 36.126 19.1007 38.5398 19.5811C39.9483 19.8614 41.002 20.2422 41.7383 20.7205C43.6183 19.7764 45.823 18.4336 48.3673 16.5726C50.5708 14.961 51.8071 13.643 52.3483 12.602C52.6152 12.0887 52.7004 11.6673 52.673 11.3234C52.6462 10.9858 52.5079 10.6804 52.25 10.3965C51.7893 9.88928 50.9589 9.46574 49.8029 9.1555C47.1893 11.3225 43.7747 13.2751 40.3609 14.7371C36.8058 16.2596 33.2042 17.2703 30.4637 17.4186C29.1005 17.4924 27.8882 17.3567 26.9968 16.9093C26.5437 16.6819 26.1634 16.3686 25.8981 15.9539C25.6318 15.5377 25.5 15.0483 25.5 14.5C25.5 13.3284 26.2945 12.3373 27.4109 11.5345C28.5415 10.7214 30.1066 10.0225 31.8873 9.44894C35.4538 8.30008 40.0036 7.61654 43.9918 7.57741C45.9865 7.55785 47.8589 7.69921 49.4081 8.0323C49.4543 8.04223 49.5003 8.05236 49.5461 8.06267C52.0917 5.85996 53.5938 3.58019 53.4954 1.52391C53.4822 1.24808 53.6951 1.01378 53.9709 1.00058ZM48.5433 8.88465C47.2197 8.6603 45.6674 8.56102 44.0016 8.57737C40.1024 8.61562 35.6538 9.28623 32.1939 10.4008C30.4613 10.9589 29.0061 11.619 27.9947 12.3463C26.9691 13.0839 26.5 13.8145 26.5 14.5C26.5 14.8835 26.5904 15.1804 26.7405 15.415C26.8915 15.6511 27.1217 15.8531 27.4454 16.0156C28.1076 16.348 29.1136 16.4902 30.4097 16.4201C32.9877 16.2806 36.468 15.3165 39.9672 13.8179C43.0501 12.4976 46.1108 10.7782 48.5433 8.88465ZM40.6265 21.2503C40.0729 20.9945 39.3285 20.7577 38.3446 20.5618C36.0925 20.1136 34.6142 20.5092 33.899 21.0352C33.5403 21.2991 33.4057 21.567 33.3857 21.7562C33.3682 21.9226 33.4287 22.1154 33.6803 22.2971C33.9463 22.4892 34.4229 22.6588 35.1706 22.679C35.9124 22.6989 36.8875 22.5704 38.1113 22.2041C38.8605 21.9798 39.6982 21.6678 40.6265 21.2503Z" fill="#009CF0"/>
            <path fill-rule="evenodd" clip-rule="evenodd" d="M14.6115 10.471L13.5006 8.5L12.3897 10.471L10.1719 10.9184L11.7031 12.584L11.4433 14.8316L13.5006 13.89L15.5578 14.8316L15.2981 12.584L16.8293 10.9184L14.6115 10.471ZM14.8924 11.5478L13.9651 11.3607L13.5006 10.5366L13.0361 11.3607L12.1088 11.5478L12.749 12.2442L12.6404 13.1839L13.5006 12.7902L14.3607 13.1839L14.2521 12.2442L14.8924 11.5478Z" fill="#009CF0"/>
            <path fill-rule="evenodd" clip-rule="evenodd" d="M69.3246 8.04604L69.0965 4.71933L66.3686 6.63704L63.1343 5.82594L64.1152 9.01292L62.3443 11.8383L65.6784 11.8903L67.8183 14.4476L68.898 11.2927L71.9914 10.0478L69.3246 8.04604ZM69.9722 9.7825L68.3583 8.57104L68.2202 6.55775L66.5693 7.71833L64.6119 7.22746L65.2056 9.15619L64.1338 10.8661L66.1516 10.8976L67.4467 12.4452L68.1001 10.5359L69.9722 9.7825Z" fill="#009CF0"/>
            <path fill-rule="evenodd" clip-rule="evenodd" d="M30 5.5C30.5523 5.5 31 5.05228 31 4.5C31 3.94772 30.5523 3.5 30 3.5C29.4477 3.5 29 3.94772 29 4.5C29 5.05228 29.4477 5.5 30 5.5ZM30 6.5C31.1046 6.5 32 5.60457 32 4.5C32 3.39543 31.1046 2.5 30 2.5C28.8954 2.5 28 3.39543 28 4.5C28 5.60457 28.8954 6.5 30 6.5Z" fill="#009CF0"/>
            <path fill-rule="evenodd" clip-rule="evenodd" d="M56.5 27.5C56.7761 27.5 57 27.2761 57 27C57 26.7239 56.7761 26.5 56.5 26.5C56.2239 26.5 56 26.7239 56 27C56 27.2761 56.2239 27.5 56.5 27.5ZM56.5 28.5C57.3284 28.5 58 27.8284 58 27C58 26.1716 57.3284 25.5 56.5 25.5C55.6716 25.5 55 26.1716 55 27C55 27.8284 55.6716 28.5 56.5 28.5Z" fill="#009CF0"/>
            <path d="M21 23.5C21 24.0523 20.5523 24.5 20 24.5C19.4477 24.5 19 24.0523 19 23.5C19 22.9477 19.4477 22.5 20 22.5C20.5523 22.5 21 22.9477 21 23.5Z" fill="#009CF0"/>
        </g>
        <defs>
            <clipPath id="clip0_986_189332">
                <rect width="80" height="80" fill="white" transform="translate(0 0.5)"/>
            </clipPath>
        </defs>
    </symbol>
    <symbol id="icon-magnifier-found" viewBox="0 0 80 80">
        <g clip-path="url(#clip0_986_189108)">
            <ellipse cx="53" cy="79" rx="13" ry="1" fill="#006499"/>
            <circle cx="32" cy="48" r="18" fill="#006499"/>
            <path d="M47 48C47 56.2843 40.2843 63 32 63C23.7157 63 17 56.2843 17 48C17 39.7157 23.7157 33 32 33C40.2843 33 47 39.7157 47 48Z" fill="#66CAFF"/>
            <path d="M21.5917 51.4051C20.9424 51.5863 20.2652 51.1991 20.1598 50.5332C19.9683 49.3234 19.9485 48.0885 20.1027 46.8684C20.3084 45.2409 20.8198 43.6716 21.6077 42.25C22.3956 40.8284 23.4446 39.5824 24.6949 38.5831C25.6093 37.8522 26.6183 37.2637 27.6899 36.8341C28.3381 36.5742 29.0371 36.9816 29.2111 37.658C29.3801 38.3151 28.988 38.979 28.3639 39.2451C27.5765 39.5807 26.8337 40.0247 26.1559 40.5665C25.1557 41.3659 24.3165 42.3627 23.6862 43.5C23.0558 44.6373 22.6467 45.8928 22.4821 47.1947C22.367 48.1056 22.3732 49.0267 22.499 49.9323C22.5891 50.581 22.2225 51.229 21.5917 51.4051Z" fill="#C7EBFF"/>
            <rect x="42.4043" y="61.1602" width="4.10418" height="5.47224" transform="rotate(-45 42.4043 61.1602)" fill="#006499"/>
            <path d="M44.6949 65.484C43.9528 64.697 43.971 63.4626 44.7358 62.6978L46.8262 60.6074C47.591 59.8426 48.8254 59.8244 49.6124 60.5664L62.1421 72.3802C63.777 73.9216 63.815 76.509 62.2262 78.0978C60.6374 79.6866 58.05 79.6485 56.5086 78.0137L44.6949 65.484Z" fill="#15ADFF"/>
            <path fill-rule="evenodd" clip-rule="evenodd" d="M53.9709 0.500582C54.2468 0.487383 54.4811 0.700284 54.4943 0.976111C54.6083 3.35856 53.0173 5.748 50.6941 7.87923C51.6566 8.2016 52.4588 8.63903 52.9902 9.22412C53.3781 9.65114 53.6234 10.1595 53.6699 10.7441C53.7159 11.3224 53.564 11.9317 53.2356 12.5634C52.5861 13.8124 51.1978 15.2414 48.9577 16.8798C46.539 18.6487 44.4061 19.9686 42.5471 20.9306C42.8132 21.2608 42.9758 21.6226 43.0368 22.0068C43.1082 22.4565 43.0349 22.9025 42.8758 23.3233C42.5626 24.1514 41.8924 24.9464 41.1419 25.6335C40.3826 26.3286 39.4984 26.9517 38.6985 27.4293C38.4614 27.5709 38.1544 27.4934 38.0129 27.2563C37.8713 27.0192 37.9488 26.7123 38.1858 26.5707C38.9412 26.1197 39.7678 25.5357 40.4666 24.8959C41.1741 24.2482 41.7093 23.5807 41.9404 22.9696C42.0535 22.6707 42.0871 22.4029 42.0492 22.1635C42.0119 21.9287 41.9006 21.6874 41.6674 21.4431C41.6514 21.4264 41.6349 21.4096 41.6178 21.3929C40.4208 21.9639 39.3487 22.3775 38.3981 22.6621C37.1015 23.0502 36.018 23.2021 35.1437 23.1786C34.2754 23.1552 33.5786 22.9572 33.0948 22.6077C32.5965 22.2478 32.3307 21.7247 32.3913 21.1512C32.4494 20.6004 32.7974 20.1042 33.3065 19.7297C34.3271 18.979 36.126 18.6007 38.5398 19.0811C39.9483 19.3614 41.002 19.7422 41.7383 20.2205C43.6183 19.2764 45.823 17.9336 48.3673 16.0726C50.5708 14.461 51.8071 13.143 52.3483 12.102C52.6152 11.5887 52.7004 11.1673 52.673 10.8234C52.6462 10.4858 52.5079 10.1804 52.25 9.89645C51.7893 9.38928 50.9589 8.96574 49.8029 8.6555C47.1893 10.8225 43.7747 12.7751 40.3609 14.2371C36.8058 15.7596 33.2042 16.7703 30.4637 16.9186C29.1005 16.9924 27.8882 16.8567 26.9968 16.4093C26.5437 16.1819 26.1634 15.8686 25.8981 15.4539C25.6318 15.0377 25.5 14.5483 25.5 14C25.5 12.8284 26.2945 11.8373 27.4109 11.0345C28.5415 10.2214 30.1066 9.52253 31.8873 8.94894C35.4538 7.80008 40.0036 7.11654 43.9918 7.07741C45.9865 7.05785 47.8589 7.19921 49.4081 7.5323C49.4543 7.54223 49.5003 7.55236 49.5461 7.56267C52.0917 5.35996 53.5938 3.08019 53.4954 1.02391C53.4822 0.748084 53.6951 0.513782 53.9709 0.500582ZM48.5433 8.38465C47.2197 8.1603 45.6674 8.06102 44.0016 8.07737C40.1024 8.11562 35.6538 8.78623 32.1939 9.90077C30.4613 10.4589 29.0061 11.119 27.9947 11.8463C26.9691 12.5839 26.5 13.3145 26.5 14C26.5 14.3835 26.5904 14.6804 26.7405 14.915C26.8915 15.1511 27.1217 15.3531 27.4454 15.5156C28.1076 15.848 29.1136 15.9902 30.4097 15.9201C32.9877 15.7806 36.468 14.8165 39.9672 13.3179C43.0501 11.9976 46.1108 10.2782 48.5433 8.38465ZM40.6265 20.7503C40.0729 20.4945 39.3285 20.2577 38.3446 20.0618C36.0925 19.6136 34.6142 20.0092 33.899 20.5352C33.5403 20.7991 33.4057 21.067 33.3857 21.2562C33.3682 21.4226 33.4287 21.6154 33.6803 21.7971C33.9463 21.9892 34.4229 22.1588 35.1706 22.179C35.9124 22.1989 36.8875 22.0704 38.1113 21.7041C38.8605 21.4798 39.6982 21.1678 40.6265 20.7503Z" fill="#009CF0"/>
            <path fill-rule="evenodd" clip-rule="evenodd" d="M19.6105 19.971L18.4996 18L17.3887 19.971L15.1709 20.4184L16.7021 22.084L16.4423 24.3316L18.4996 23.39L20.5568 24.3316L20.2971 22.084L21.8283 20.4184L19.6105 19.971ZM19.8914 21.0478L18.9641 20.8607L18.4996 20.0366L18.0351 20.8607L17.1078 21.0478L17.748 21.7442L17.6394 22.6839L18.4996 22.2902L19.3598 22.6839L19.2512 21.7442L19.8914 21.0478Z" fill="#009CF0"/>
            <path fill-rule="evenodd" clip-rule="evenodd" d="M64.3236 5.54701L64.0956 2.22031L61.3677 4.13801L58.1333 3.32692L59.1142 6.5139L57.3433 9.33932L60.6774 9.39128L62.8173 11.9486L63.897 8.79371L66.9904 7.54879L64.3236 5.54701ZM64.9712 7.28347L63.3573 6.07202L63.2193 4.05873L61.5684 5.21931L59.611 4.72844L60.2046 6.65717L59.1329 8.36709L61.1506 8.39853L62.4457 9.94618L63.0991 8.03689L64.9712 7.28347Z" fill="#009CF0"/>
            <path fill-rule="evenodd" clip-rule="evenodd" d="M56 27C56.5523 27 57 26.5523 57 26C57 25.4477 56.5523 25 56 25C55.4477 25 55 25.4477 55 26C55 26.5523 55.4477 27 56 27ZM56 28C57.1046 28 58 27.1046 58 26C58 24.8954 57.1046 24 56 24C54.8954 24 54 24.8954 54 26C54 27.1046 54.8954 28 56 28Z" fill="#009CF0"/>
            <path fill-rule="evenodd" clip-rule="evenodd" d="M27.5 5C27.7761 5 28 4.77614 28 4.5C28 4.22386 27.7761 4 27.5 4C27.2239 4 27 4.22386 27 4.5C27 4.77614 27.2239 5 27.5 5ZM27.5 6C28.3284 6 29 5.32843 29 4.5C29 3.67157 28.3284 3 27.5 3C26.6716 3 26 3.67157 26 4.5C26 5.32843 26.6716 6 27.5 6Z" fill="#009CF0"/>
            <path d="M12 12C12 12.5523 11.5523 13 11 13C10.4477 13 10 12.5523 10 12C10 11.4477 10.4477 11 11 11C11.5523 11 12 11.4477 12 12Z" fill="#009CF0"/>
        </g>
        <defs>
            <clipPath id="clip0_986_189108">
                <rect width="80" height="80" fill="white"/>
            </clipPath>
        </defs>
    </symbol>
</svg>
