<svg width="140" height="64" viewBox="0 0 140 64" fill="none" xmlns="http://www.w3.org/2000/svg">
    <path d="M7.99023 55V46.4688H10.7793C11.7051 46.4688 12.4004 46.6602 12.8652 47.043C13.334 47.4258 13.5684 47.9922 13.5684 48.7422C13.5684 49.1406 13.4551 49.4941 13.2285 49.8027C13.002 50.1074 12.6934 50.3438 12.3027 50.5117C12.7637 50.6406 13.127 50.8867 13.3926 51.25C13.6621 51.6094 13.7969 52.0391 13.7969 52.5391C13.7969 53.3047 13.5488 53.9062 13.0527 54.3438C12.5566 54.7812 11.8555 55 10.9492 55H7.99023ZM9.11523 51.0098V54.0801H10.9727C11.4961 54.0801 11.9082 53.9453 12.209 53.6758C12.5137 53.4023 12.666 53.0273 12.666 52.5508C12.666 51.5234 12.1074 51.0098 10.9902 51.0098H9.11523ZM9.11523 50.1074H10.8145C11.3066 50.1074 11.6992 49.9844 11.9922 49.7383C12.2891 49.4922 12.4375 49.1582 12.4375 48.7363C12.4375 48.2676 12.3008 47.9277 12.0273 47.7168C11.7539 47.502 11.3379 47.3945 10.7793 47.3945H9.11523V50.1074Z" fill="#040B1D" />
    <path d="M16.4746 55H15.3906V46H16.4746V55Z" fill="#040B1D" />
    <path d="M17.9277 51.7715C17.9277 51.1504 18.0488 50.5918 18.291 50.0957C18.5371 49.5996 18.877 49.2168 19.3105 48.9473C19.748 48.6777 20.2461 48.543 20.8047 48.543C21.668 48.543 22.3652 48.8418 22.8965 49.4395C23.4316 50.0371 23.6992 50.832 23.6992 51.8242V51.9004C23.6992 52.5176 23.5801 53.0723 23.3418 53.5645C23.1074 54.0527 22.7695 54.4336 22.3281 54.707C21.8906 54.9805 21.3867 55.1172 20.8164 55.1172C19.957 55.1172 19.2598 54.8184 18.7246 54.2207C18.1934 53.623 17.9277 52.832 17.9277 51.8477V51.7715ZM19.0176 51.9004C19.0176 52.6035 19.1797 53.168 19.5039 53.5938C19.832 54.0195 20.2695 54.2324 20.8164 54.2324C21.3672 54.2324 21.8047 54.0176 22.1289 53.5879C22.4531 53.1543 22.6152 52.5488 22.6152 51.7715C22.6152 51.0762 22.4492 50.5137 22.1172 50.084C21.7891 49.6504 21.3516 49.4336 20.8047 49.4336C20.2695 49.4336 19.8379 49.6465 19.5098 50.0723C19.1816 50.498 19.0176 51.1074 19.0176 51.9004Z" fill="#040B1D" />
    <path d="M27.6016 54.2324C27.9883 54.2324 28.3262 54.1152 28.6152 53.8809C28.9043 53.6465 29.0645 53.3535 29.0957 53.002H30.1211C30.1016 53.3652 29.9766 53.7109 29.7461 54.0391C29.5156 54.3672 29.207 54.6289 28.8203 54.8242C28.4375 55.0195 28.0312 55.1172 27.6016 55.1172C26.7383 55.1172 26.0508 54.8301 25.5391 54.2559C25.0312 53.6777 24.7773 52.8887 24.7773 51.8887V51.707C24.7773 51.0898 24.8906 50.541 25.1172 50.0605C25.3438 49.5801 25.668 49.207 26.0898 48.9414C26.5156 48.6758 27.0176 48.543 27.5957 48.543C28.3066 48.543 28.8965 48.7559 29.3652 49.1816C29.8379 49.6074 30.0898 50.1602 30.1211 50.8398H29.0957C29.0645 50.4297 28.9082 50.0938 28.627 49.832C28.3496 49.5664 28.0059 49.4336 27.5957 49.4336C27.0449 49.4336 26.6172 49.6328 26.3125 50.0312C26.0117 50.4258 25.8613 50.998 25.8613 51.748V51.9531C25.8613 52.6836 26.0117 53.2461 26.3125 53.6406C26.6133 54.0352 27.043 54.2324 27.6016 54.2324Z" fill="#040B1D" />
    <path d="M33.1094 52.0645L32.4297 52.7734V55H31.3457V46H32.4297V51.4434L33.0098 50.7461L34.9844 48.6602H36.3027L33.8359 51.3086L36.5898 55H35.3184L33.1094 52.0645Z" fill="#040B1D" />
    <path d="M43.0293 55.1172C42.1699 55.1172 41.4707 54.8359 40.9316 54.2734C40.3926 53.707 40.123 52.9512 40.123 52.0059V51.8066C40.123 51.1777 40.2422 50.6172 40.4805 50.125C40.7227 49.6289 41.0586 49.2422 41.4883 48.9648C41.9219 48.6836 42.3906 48.543 42.8945 48.543C43.7188 48.543 44.3594 48.8145 44.8164 49.3574C45.2734 49.9004 45.502 50.6777 45.502 51.6895V52.1406H41.207C41.2227 52.7656 41.4043 53.2715 41.752 53.6582C42.1035 54.041 42.5488 54.2324 43.0879 54.2324C43.4707 54.2324 43.7949 54.1543 44.0605 53.998C44.3262 53.8418 44.5586 53.6348 44.7578 53.377L45.4199 53.8926C44.8887 54.709 44.0918 55.1172 43.0293 55.1172ZM42.8945 49.4336C42.457 49.4336 42.0898 49.5938 41.793 49.9141C41.4961 50.2305 41.3125 50.6758 41.2422 51.25H44.418V51.168C44.3867 50.6172 44.2383 50.1914 43.9727 49.8906C43.707 49.5859 43.3477 49.4336 42.8945 49.4336Z" fill="#040B1D" />
    <path d="M48.8887 50.9746L50.2949 48.6602H51.5605L49.4863 51.7949L51.625 55H50.3711L48.9062 52.627L47.4414 55H46.1816L48.3203 51.7949L46.2461 48.6602H47.5L48.8887 50.9746Z" fill="#040B1D" />
    <path d="M58.0703 51.9004C58.0703 52.8652 57.8496 53.6426 57.4082 54.2324C56.9668 54.8223 56.3691 55.1172 55.6152 55.1172C54.8457 55.1172 54.2402 54.873 53.7988 54.3848V57.4375H52.7148V48.6602H53.7051L53.7578 49.3633C54.1992 48.8164 54.8125 48.543 55.5977 48.543C56.3594 48.543 56.9609 48.8301 57.4023 49.4043C57.8477 49.9785 58.0703 50.7773 58.0703 51.8008V51.9004ZM56.9863 51.7773C56.9863 51.0625 56.834 50.498 56.5293 50.084C56.2246 49.6699 55.8066 49.4629 55.2754 49.4629C54.6191 49.4629 54.127 49.7539 53.7988 50.3359V53.3652C54.123 53.9434 54.6191 54.2324 55.2871 54.2324C55.8066 54.2324 56.2188 54.0273 56.5234 53.6172C56.832 53.2031 56.9863 52.5898 56.9863 51.7773Z" fill="#040B1D" />
    <path d="M60.6309 55H59.5469V46H60.6309V55Z" fill="#040B1D" />
    <path d="M62.084 51.7715C62.084 51.1504 62.2051 50.5918 62.4473 50.0957C62.6934 49.5996 63.0332 49.2168 63.4668 48.9473C63.9043 48.6777 64.4023 48.543 64.9609 48.543C65.8242 48.543 66.5215 48.8418 67.0527 49.4395C67.5879 50.0371 67.8555 50.832 67.8555 51.8242V51.9004C67.8555 52.5176 67.7363 53.0723 67.498 53.5645C67.2637 54.0527 66.9258 54.4336 66.4844 54.707C66.0469 54.9805 65.543 55.1172 64.9727 55.1172C64.1133 55.1172 63.416 54.8184 62.8809 54.2207C62.3496 53.623 62.084 52.832 62.084 51.8477V51.7715ZM63.1738 51.9004C63.1738 52.6035 63.3359 53.168 63.6602 53.5938C63.9883 54.0195 64.4258 54.2324 64.9727 54.2324C65.5234 54.2324 65.9609 54.0176 66.2852 53.5879C66.6094 53.1543 66.7715 52.5488 66.7715 51.7715C66.7715 51.0762 66.6055 50.5137 66.2734 50.084C65.9453 49.6504 65.5078 49.4336 64.9609 49.4336C64.4258 49.4336 63.9941 49.6465 63.666 50.0723C63.3379 50.498 63.1738 51.1074 63.1738 51.9004Z" fill="#040B1D" />
    <path d="M72.2793 49.6328C72.1152 49.6055 71.9375 49.5918 71.7461 49.5918C71.0352 49.5918 70.5527 49.8945 70.2988 50.5V55H69.2148V48.6602H70.2695L70.2871 49.3926C70.6426 48.8262 71.1465 48.543 71.7988 48.543C72.0098 48.543 72.1699 48.5703 72.2793 48.625V49.6328Z" fill="#040B1D" />
    <path d="M75.7949 55.1172C74.9355 55.1172 74.2363 54.8359 73.6973 54.2734C73.1582 53.707 72.8887 52.9512 72.8887 52.0059V51.8066C72.8887 51.1777 73.0078 50.6172 73.2461 50.125C73.4883 49.6289 73.8242 49.2422 74.2539 48.9648C74.6875 48.6836 75.1562 48.543 75.6602 48.543C76.4844 48.543 77.125 48.8145 77.582 49.3574C78.0391 49.9004 78.2676 50.6777 78.2676 51.6895V52.1406H73.9727C73.9883 52.7656 74.1699 53.2715 74.5176 53.6582C74.8691 54.041 75.3145 54.2324 75.8535 54.2324C76.2363 54.2324 76.5605 54.1543 76.8262 53.998C77.0918 53.8418 77.3242 53.6348 77.5234 53.377L78.1855 53.8926C77.6543 54.709 76.8574 55.1172 75.7949 55.1172ZM75.6602 49.4336C75.2227 49.4336 74.8555 49.5938 74.5586 49.9141C74.2617 50.2305 74.0781 50.6758 74.0078 51.25H77.1836V51.168C77.1523 50.6172 77.0039 50.1914 76.7383 49.8906C76.4727 49.5859 76.1133 49.4336 75.6602 49.4336Z" fill="#040B1D" />
    <path d="M82.5918 49.6328C82.4277 49.6055 82.25 49.5918 82.0586 49.5918C81.3477 49.5918 80.8652 49.8945 80.6113 50.5V55H79.5273V48.6602H80.582L80.5996 49.3926C80.9551 48.8262 81.459 48.543 82.1113 48.543C82.3223 48.543 82.4824 48.5703 82.5918 48.625V49.6328Z" fill="#040B1D" />
    <path fill-rule="evenodd" clip-rule="evenodd" d="M77.8038 39.9494C77.8038 40.4404 78.2495 40.8079 78.7176 40.6825C86.3352 38.6411 91.9546 31.5597 91.9546 23.1374C91.9546 13.1204 84.0056 5 74.2 5C64.3944 5 56.4455 13.1204 56.4455 23.1374C56.4455 31.7533 62.3262 38.966 70.2109 40.8153C70.6738 40.9238 71.1037 40.5582 71.1037 40.0765V35.7796C71.1037 35.4325 70.8749 35.1299 70.5493 35.0228C68.0522 34.2008 66.0326 32.7454 64.4903 30.6566C62.8471 28.4152 62.0255 25.8181 62.0255 22.8652C62.0255 18.9637 63.4604 15.7677 66.3303 13.2773C68.7141 11.2138 71.4277 10.1821 74.4711 10.1821C78.3939 10.1821 81.5588 11.6348 83.9658 14.5403C85.9099 16.8883 86.8819 19.5981 86.8819 22.6696C86.8819 25.6817 86.0198 28.3796 84.2956 30.7633C82.8495 32.7761 80.87 34.1959 78.357 35.0226C78.0318 35.1296 77.8038 35.432 77.8038 35.7786V39.9494ZM77.5781 25.5962C77.5781 25.1686 77.2362 24.822 76.8145 24.822H72.1103C71.6886 24.822 71.3467 25.1686 71.3467 25.5962V25.8899C71.3467 26.5464 70.6125 26.8714 70.246 26.3301C69.5911 25.3632 69.2637 24.2201 69.2637 22.9008C69.2637 21.3947 69.7787 20.0903 70.8086 18.9874C71.8385 17.8845 73.0593 17.3331 74.4711 17.3331C75.8713 17.3331 77.0863 17.8845 78.1162 18.9874C79.1461 20.0903 79.6611 21.3947 79.6611 22.9008C79.6611 24.18 79.3375 25.3071 78.6903 26.2823C78.3249 26.8329 77.5781 26.5105 77.5781 25.8469V25.5962Z" fill="#15ADFF" />
    <path d="M7 16.2881C7 15.8605 7.34189 15.5139 7.76364 15.5139H13.9616C14.3833 15.5139 14.7252 15.8605 14.7252 16.2881V26.7113C14.7252 27.199 14.8312 27.5843 15.0432 27.867C15.2553 28.1427 15.5152 28.2806 15.823 28.2806C16.1376 28.2806 16.4522 28.1321 16.7668 27.8352C17.0883 27.5313 17.249 27.1566 17.249 26.7113V16.2881C17.249 15.8605 17.5909 15.5139 18.0126 15.5139H24.3029C24.7246 15.5139 25.0665 15.8605 25.0665 16.2881V27.0188C25.0665 28.7931 24.6254 30.3306 23.7431 31.6313C22.8676 32.932 21.7186 33.9146 20.296 34.5791C18.8802 35.2436 17.3892 35.5758 15.823 35.5758C14.7081 35.5758 13.6206 35.3956 12.5605 35.0351C11.5004 34.6675 10.5497 34.1232 9.70844 33.4021C8.87402 32.674 8.21401 31.7727 7.72841 30.6982C7.2428 29.6237 7 28.3972 7 27.0188V16.2881Z" fill="#040B1D" />
    <path d="M27.6502 34.453C27.2284 34.453 26.8865 34.1064 26.8865 33.6788V22.0681C26.8865 20.5058 27.3072 19.1698 28.1484 18.0599C28.9965 16.943 30.1148 16.1018 31.5032 15.5363C32.8916 14.9707 34.3621 14.688 35.9147 14.688C37.5014 14.688 39.0095 14.9849 40.439 15.5787C41.8753 16.1654 43.0346 17.0455 43.9169 18.219C44.806 19.3924 45.2506 20.778 45.2506 22.3756V33.6788C45.2506 34.1064 44.9087 34.453 44.4869 34.453H37.8991C37.4774 34.453 37.1355 34.1064 37.1355 33.6788V22.8951C37.1355 22.471 37.0192 22.1564 36.7867 21.9514C36.561 21.7394 36.3011 21.6333 36.007 21.6333C35.6787 21.6333 35.3641 21.7606 35.0631 22.015C34.7622 22.2625 34.6117 22.5558 34.6117 22.8951V33.6788C34.6117 34.1064 34.2698 34.453 33.8481 34.453H27.6502Z" fill="#040B1D" />
    <path d="M47.8239 34.453C47.4022 34.453 47.0603 34.1064 47.0603 33.6788V15.6848C47.0603 15.2573 47.4022 14.9106 47.8239 14.9106H54.3297C54.7514 14.9106 55.0933 15.2573 55.0933 15.6848V33.6788C55.0933 34.1064 54.7514 34.453 54.3297 34.453H47.8239Z" fill="#040B1D" />
    <path d="M93.454 16.2881C93.454 15.8605 93.7959 15.5139 94.2176 15.5139H100.416C100.837 15.5139 101.179 15.8605 101.179 16.2881V26.7113C101.179 27.199 101.285 27.5843 101.497 27.867C101.709 28.1427 101.969 28.2806 102.277 28.2806C102.592 28.2806 102.906 28.1321 103.221 27.8352C103.542 27.5313 103.703 27.1566 103.703 26.7113V16.2881C103.703 15.8605 104.045 15.5139 104.467 15.5139H110.757C111.179 15.5139 111.521 15.8605 111.521 16.2881V27.0188C111.521 28.7931 111.079 30.3306 110.197 31.6313C109.322 32.932 108.173 33.9146 106.75 34.5791C105.334 35.2436 103.843 35.5758 102.277 35.5758C101.162 35.5758 100.075 35.3956 99.0145 35.0351C97.9544 34.6675 97.0037 34.1232 96.1624 33.4021C95.328 32.674 94.668 31.7727 94.1824 30.6982C93.6968 29.6237 93.454 28.3972 93.454 27.0188V16.2881Z" fill="#040B1D" />
    <path d="M132.666 21.4392C132.818 21.7943 132.671 22.2053 132.337 22.3934L124.008 27.0914C123.643 27.2977 123.181 27.167 122.974 26.7983L121.748 24.6191C121.537 24.2432 121.671 23.7646 122.045 23.5567L124.39 22.2546C124.833 22.0081 124.904 21.3913 124.42 21.2395C124.188 21.1665 123.936 21.13 123.669 21.13C122.823 21.13 121.977 21.5221 121.13 22.2761C120.955 22.4269 120.167 23.0302 119.934 23.6635C119.788 24.0255 119.817 24.3573 119.846 24.5684C119.875 24.8398 120.663 27.0416 121.335 27.8258C122.035 28.6402 122.823 29.0323 123.757 29.0323C125.113 29.0323 126.585 28.2616 128.112 26.7202C128.419 26.4102 128.917 26.3923 129.227 26.6994L132.468 29.9115C132.73 30.1714 132.776 30.5857 132.551 30.8798C131.931 31.6937 131.157 32.4251 130.264 33.0739C129.155 33.8581 127.988 34.4311 126.733 34.8534C125.478 35.2455 124.224 35.4566 122.969 35.4566C121.714 35.4566 120.547 35.2455 119.409 34.8534C118.27 34.4613 117.249 33.8581 116.315 33.0135C115.381 32.1992 114.652 31.1435 114.068 29.8768C113.514 28.61 113.105 27.1623 113.018 25.5034C113.018 25.4129 113.018 25.3827 113.018 25.2319C113.018 25.0811 113.018 24.9906 113.018 24.9906C113.018 22.7889 113.514 20.8887 114.477 19.3203C115.44 17.7519 116.695 16.5455 118.183 15.7613C119.7 14.9771 121.218 14.5548 122.764 14.5548C127.402 14.5548 130.703 16.8496 132.666 21.4392Z" fill="#040B1D" />
</svg>