<svg width="19" height="19" viewBox="0 0 19 19" fill="none" xmlns="http://www.w3.org/2000/svg">
<path fill-rule="evenodd" clip-rule="evenodd" d="M11.6893 1C11.9706 0.718696 12.3522 0.560661 12.75 0.560661C13.1478 0.560661 13.5294 0.718696 13.8107 1L18 5.18934C18.2813 5.47065 18.4393 5.85218 18.4393 6.25C18.4393 6.64782 18.2813 7.02936 18 7.31066L6.75 18.5607C6.61072 18.6999 6.44536 18.8104 6.26337 18.8858C6.08138 18.9612 5.88632 19 5.68934 19H1.5C1.10218 19 0.720645 18.842 0.43934 18.5607C0.158035 18.2794 0 17.8978 0 17.5V13.3107C-5.96046e-08 13.1137 0.0387985 12.9186 0.114181 12.7366C0.189562 12.5546 0.300052 12.3893 0.43934 12.25L11.6893 1ZM16.9393 6.25L12.75 2.06066L1.5 13.3107L0.975629 12.7863L1.5 13.3107L1.5 17.5L5.68934 17.5L16.9393 6.25Z" fill="#A9AFBD"/>
<path fill-rule="evenodd" clip-rule="evenodd" d="M9.21967 3.46967C9.51256 3.17678 9.98744 3.17678 10.2803 3.46967L15.5303 8.71967C15.8232 9.01256 15.8232 9.48744 15.5303 9.78033C15.2374 10.0732 14.7626 10.0732 14.4697 9.78033L9.21967 4.53033C8.92678 4.23744 8.92678 3.76256 9.21967 3.46967Z" fill="#A9AFBD"/>
<path fill-rule="evenodd" clip-rule="evenodd" d="M0.267399 12.5174C0.560293 12.2245 1.03517 12.2245 1.32806 12.5174L6.48244 17.6717C6.77533 17.9646 6.77533 18.4395 6.48244 18.7324C6.18954 19.0253 5.71467 19.0253 5.42178 18.7324L0.2674 13.578C-0.0254938 13.2851 -0.0254938 12.8103 0.267399 12.5174Z" fill="#A9AFBD"/>
</svg>
